<svg width="578" height="259" viewBox="0 0 578 259" fill="none" xmlns="http://www.w3.org/2000/svg">
<rect x="0.5" y="0.5" width="577" height="258" rx="3.5" fill="white"/>
<rect x="17.5" y="38.5" width="535" height="24" stroke="#CED7D4"/>
<rect x="18" y="39" width="14" height="23" fill="#E6B056"/>
<path d="M45.63 72.25V70.794H48.542V81H46.932V72.25H45.63ZM55.6633 71.27V77.472C55.6633 78.214 55.8453 78.774 56.2373 79.138C56.6292 79.516 57.1613 79.698 57.8613 79.698C58.5613 79.698 59.0933 79.516 59.4853 79.138C59.8773 78.774 60.0733 78.214 60.0733 77.472V71.27H61.6693V77.444C61.6693 78.242 61.4873 78.914 61.1513 79.46C60.8013 80.02 60.3393 80.426 59.7653 80.692C59.1773 80.972 58.5473 81.098 57.8473 81.098C57.1472 81.098 56.5033 80.972 55.9293 80.692C55.3553 80.426 54.9073 80.02 54.5713 79.46C54.2353 78.914 54.0673 78.242 54.0673 77.444V71.27H55.6633ZM69.0133 73.538C69.4893 73.79 69.8673 74.168 70.1473 74.658C70.4133 75.162 70.5533 75.75 70.5533 76.45V81H68.9713V76.688C68.9713 76.002 68.7893 75.47 68.4533 75.106C68.1033 74.742 67.6273 74.546 67.0393 74.546C66.4373 74.546 65.9613 74.742 65.6113 75.106C65.2613 75.47 65.0933 76.002 65.0933 76.688V81H63.4973V73.286H65.0933V74.168C65.3453 73.86 65.6813 73.608 66.0873 73.426C66.4933 73.258 66.9273 73.16 67.3893 73.16C67.9913 73.16 68.5373 73.286 69.0133 73.538ZM72.4231 71.97C72.2271 71.774 72.1291 71.536 72.1291 71.242C72.1291 70.962 72.2271 70.71 72.4231 70.514C72.6191 70.318 72.8571 70.22 73.1511 70.22C73.4311 70.22 73.6691 70.318 73.8651 70.514C74.0611 70.71 74.1591 70.962 74.1591 71.242C74.1591 71.536 74.0611 71.774 73.8651 71.97C73.6691 72.166 73.4311 72.264 73.1511 72.264C72.8571 72.264 72.6191 72.166 72.4231 71.97ZM73.9351 73.286V81H72.3391V73.286H73.9351ZM77.6425 74.588V78.858C77.6425 79.152 77.6985 79.362 77.8385 79.488C77.9785 79.614 78.2025 79.67 78.5385 79.67H79.5185V81H78.2585C77.5305 81 76.9845 80.832 76.6065 80.496C76.2145 80.16 76.0325 79.614 76.0325 78.858V74.588H75.1225V73.286H76.0325V71.368H77.6425V73.286H79.5185V74.588H77.6425Z" fill="#595959"/>
<path d="M27.083 22.9893C27.083 24.5889 26.6774 25.8467 25.8662 26.7627C25.0596 27.6787 23.9294 28.1367 22.4756 28.1367C21.0036 28.1367 19.8643 27.6878 19.0576 26.79C18.2555 25.8877 17.8545 24.6162 17.8545 22.9756C17.8545 21.3486 18.2533 20.0885 19.0508 19.1953C19.8529 18.2975 20.999 17.8486 22.4893 17.8486C23.9385 17.8486 25.0664 18.3044 25.873 19.2158C26.6797 20.1227 27.083 21.3805 27.083 22.9893ZM19.1807 22.9893C19.1807 24.3109 19.4609 25.318 20.0215 26.0107C20.582 26.7035 21.4001 27.0498 22.4756 27.0498C23.5465 27.0498 24.36 26.708 24.916 26.0244C25.472 25.3408 25.75 24.3291 25.75 22.9893C25.75 21.654 25.4743 20.6491 24.9229 19.9746C24.3714 19.2956 23.5602 18.9561 22.4893 18.9561C21.4046 18.9561 20.582 19.3001 20.0215 19.9883C19.4609 20.6719 19.1807 21.6722 19.1807 22.9893ZM30.7812 28L27.9375 20.4941H29.2568L30.8496 24.917C31.1641 25.8057 31.3646 26.4688 31.4512 26.9062H31.5059C31.5195 26.847 31.5355 26.7809 31.5537 26.708C31.5765 26.6305 31.6016 26.5485 31.6289 26.4619C31.6562 26.3708 31.8249 25.8558 32.1348 24.917L33.7344 20.4941H35.0469L32.1963 28H30.7812ZM39.4287 28.1367C38.3031 28.1367 37.4189 27.7972 36.7764 27.1182C36.1383 26.4346 35.8193 25.4958 35.8193 24.3018C35.8193 23.0986 36.1178 22.1416 36.7148 21.4307C37.3118 20.7152 38.1185 20.3574 39.1348 20.3574C40.0781 20.3574 40.8301 20.6628 41.3906 21.2734C41.9512 21.8796 42.2314 22.7021 42.2314 23.7412V24.4863H37.0908C37.1136 25.3385 37.3301 25.9857 37.7402 26.4277C38.1504 26.8698 38.7314 27.0908 39.4834 27.0908C39.8844 27.0908 40.265 27.0566 40.625 26.9883C40.985 26.9154 41.4066 26.7764 41.8896 26.5713V27.6514C41.4749 27.8291 41.0853 27.9544 40.7207 28.0273C40.3561 28.1003 39.9255 28.1367 39.4287 28.1367ZM39.1211 21.3623C38.5332 21.3623 38.0684 21.5514 37.7266 21.9297C37.3848 22.3079 37.182 22.8343 37.1182 23.5088H40.9395C40.9303 22.807 40.7686 22.2738 40.4541 21.9092C40.1396 21.5446 39.6953 21.3623 39.1211 21.3623ZM47.6387 20.3574C47.9714 20.3574 48.2653 20.3848 48.5205 20.4395L48.3701 21.5742C48.0921 21.5104 47.821 21.4785 47.5566 21.4785C47.1602 21.4785 46.791 21.5879 46.4492 21.8066C46.112 22.0254 45.8477 22.3285 45.6562 22.7158C45.4648 23.0986 45.3691 23.5247 45.3691 23.9941V28H44.1387V20.4941H45.1504L45.2871 21.8682H45.3418C45.6289 21.3714 45.9684 20.9954 46.3604 20.7402C46.7523 20.485 47.1784 20.3574 47.6387 20.3574ZM54.7891 28H53.5586V17.3633H54.7891V28ZM63.6895 24.2334C63.6895 25.4593 63.3796 26.4163 62.7598 27.1045C62.14 27.7926 61.2832 28.1367 60.1895 28.1367C59.5104 28.1367 58.9089 27.9795 58.3848 27.665C57.8607 27.346 57.4574 26.8903 57.1748 26.2979C56.8923 25.7054 56.751 25.0173 56.751 24.2334C56.751 23.012 57.0563 22.0618 57.667 21.3828C58.2777 20.6992 59.1344 20.3574 60.2373 20.3574C61.2946 20.3574 62.1331 20.7061 62.7529 21.4033C63.3773 22.096 63.6895 23.0394 63.6895 24.2334ZM58.0225 24.2334C58.0225 25.1768 58.207 25.8945 58.5762 26.3867C58.9499 26.8743 59.499 27.1182 60.2236 27.1182C60.9391 27.1182 61.4837 26.8743 61.8574 26.3867C62.2311 25.8945 62.418 25.1768 62.418 24.2334C62.418 23.29 62.2288 22.5814 61.8506 22.1074C61.4769 21.6289 60.9277 21.3896 60.2031 21.3896C58.7493 21.3896 58.0225 22.3376 58.0225 24.2334ZM70.2793 28L70.04 26.9336H69.9854C69.6117 27.403 69.238 27.722 68.8643 27.8906C68.4951 28.0547 68.028 28.1367 67.4629 28.1367C66.7246 28.1367 66.1458 27.943 65.7266 27.5557C65.3073 27.1683 65.0977 26.6214 65.0977 25.915C65.0977 24.3929 66.2985 23.5954 68.7002 23.5225L69.9717 23.4746V23.0303C69.9717 22.4606 69.8486 22.0413 69.6025 21.7725C69.3564 21.499 68.9622 21.3623 68.4199 21.3623C68.0234 21.3623 67.6475 21.4215 67.292 21.54C66.9411 21.6585 66.6107 21.7907 66.3008 21.9365L65.9248 21.0137C66.3031 20.8132 66.7155 20.6559 67.1621 20.542C67.6087 20.4281 68.0508 20.3711 68.4883 20.3711C69.3952 20.3711 70.0697 20.5716 70.5117 20.9727C70.9538 21.3737 71.1748 22.0117 71.1748 22.8867V28H70.2793ZM67.7432 27.1455C68.4313 27.1455 68.9714 26.9609 69.3633 26.5918C69.7598 26.2181 69.958 25.6895 69.958 25.0059V24.3291L68.8506 24.377C67.9893 24.4089 67.3604 24.5456 66.9639 24.7871C66.5719 25.0286 66.376 25.4092 66.376 25.9287C66.376 26.3206 66.4945 26.6214 66.7314 26.8311C66.973 27.0407 67.3102 27.1455 67.7432 27.1455ZM76.165 28.1367C75.1898 28.1367 74.4333 27.7995 73.8955 27.125C73.3577 26.4505 73.0889 25.4958 73.0889 24.2607C73.0889 23.0348 73.3577 22.0778 73.8955 21.3896C74.4378 20.7015 75.1989 20.3574 76.1787 20.3574C77.1859 20.3574 77.9606 20.7266 78.5029 21.4648H78.5918C78.5781 21.3737 78.5599 21.1914 78.5371 20.918C78.5143 20.64 78.5029 20.4531 78.5029 20.3574V17.3633H79.7334V28H78.7422L78.5576 26.9951H78.5029C77.9788 27.7562 77.1995 28.1367 76.165 28.1367ZM76.3633 27.1182C77.1107 27.1182 77.6553 26.9154 77.9971 26.5098C78.3434 26.0996 78.5166 25.4297 78.5166 24.5V24.2744C78.5166 23.2308 78.3411 22.488 77.9902 22.0459C77.6439 21.5993 77.097 21.376 76.3496 21.376C75.7161 21.376 75.2262 21.6289 74.8799 22.1348C74.5335 22.6361 74.3604 23.3538 74.3604 24.2881C74.3604 25.2178 74.5312 25.9219 74.873 26.4004C75.2194 26.8789 75.7161 27.1182 76.3633 27.1182Z" fill="#595959"/>
<path d="M25.9619 178.006V184.473C25.9619 185.612 25.6178 186.507 24.9297 187.159C24.2415 187.811 23.2868 188.137 22.0654 188.137C20.8577 188.137 19.9212 187.809 19.2559 187.152C18.5905 186.492 18.2578 185.589 18.2578 184.445V178.006H19.5225V184.486C19.5225 185.302 19.7389 185.933 20.1719 186.38C20.6094 186.826 21.2656 187.05 22.1406 187.05C22.9655 187.05 23.599 186.829 24.041 186.387C24.4876 185.945 24.7109 185.307 24.7109 184.473V178.006H25.9619ZM33.543 188V183.201C33.543 182.59 33.4062 182.137 33.1328 181.841C32.8639 181.54 32.4401 181.39 31.8613 181.39C31.0911 181.39 30.5306 181.604 30.1797 182.032C29.8333 182.456 29.6602 183.149 29.6602 184.11V188H28.4297V180.494H29.4209L29.6055 181.52H29.6738C29.9062 181.15 30.2321 180.866 30.6514 180.665C31.0706 180.46 31.5332 180.357 32.0391 180.357C32.9596 180.357 33.6432 180.581 34.0898 181.027C34.5365 181.474 34.7598 182.169 34.7598 183.112V188H33.543ZM39.7432 188.137C38.7679 188.137 38.0114 187.799 37.4736 187.125C36.9359 186.451 36.667 185.496 36.667 184.261C36.667 183.035 36.9359 182.078 37.4736 181.39C38.016 180.701 38.777 180.357 39.7568 180.357C40.764 180.357 41.5387 180.727 42.0811 181.465H42.1699C42.1562 181.374 42.138 181.191 42.1152 180.918C42.0924 180.64 42.0811 180.453 42.0811 180.357V177.363H43.3115V188H42.3203L42.1357 186.995H42.0811C41.557 187.756 40.7777 188.137 39.7432 188.137ZM39.9414 187.118C40.6888 187.118 41.2334 186.915 41.5752 186.51C41.9215 186.1 42.0947 185.43 42.0947 184.5V184.274C42.0947 183.231 41.9193 182.488 41.5684 182.046C41.222 181.599 40.6751 181.376 39.9277 181.376C39.2943 181.376 38.8044 181.629 38.458 182.135C38.1117 182.636 37.9385 183.354 37.9385 184.288C37.9385 185.218 38.1094 185.922 38.4512 186.4C38.7975 186.879 39.2943 187.118 39.9414 187.118ZM48.8896 188.137C47.764 188.137 46.8799 187.797 46.2373 187.118C45.5993 186.435 45.2803 185.496 45.2803 184.302C45.2803 183.099 45.5788 182.142 46.1758 181.431C46.7728 180.715 47.5794 180.357 48.5957 180.357C49.5391 180.357 50.291 180.663 50.8516 181.273C51.4121 181.88 51.6924 182.702 51.6924 183.741V184.486H46.5518C46.5745 185.339 46.791 185.986 47.2012 186.428C47.6113 186.87 48.1924 187.091 48.9443 187.091C49.3454 187.091 49.7259 187.057 50.0859 186.988C50.446 186.915 50.8675 186.776 51.3506 186.571V187.651C50.9359 187.829 50.5462 187.954 50.1816 188.027C49.8171 188.1 49.3864 188.137 48.8896 188.137ZM48.582 181.362C47.9941 181.362 47.5293 181.551 47.1875 181.93C46.8457 182.308 46.6429 182.834 46.5791 183.509H50.4004C50.3913 182.807 50.2295 182.274 49.915 181.909C49.6006 181.545 49.1562 181.362 48.582 181.362ZM57.0996 180.357C57.4323 180.357 57.7262 180.385 57.9814 180.439L57.8311 181.574C57.5531 181.51 57.2819 181.479 57.0176 181.479C56.6211 181.479 56.252 181.588 55.9102 181.807C55.5729 182.025 55.3086 182.328 55.1172 182.716C54.9258 183.099 54.8301 183.525 54.8301 183.994V188H53.5996V180.494H54.6113L54.748 181.868H54.8027C55.0898 181.371 55.4294 180.995 55.8213 180.74C56.2132 180.485 56.6393 180.357 57.0996 180.357ZM64.25 188H63.0195V177.363H64.25V188ZM73.1504 184.233C73.1504 185.459 72.8405 186.416 72.2207 187.104C71.6009 187.793 70.7441 188.137 69.6504 188.137C68.9714 188.137 68.3698 187.979 67.8457 187.665C67.3216 187.346 66.9183 186.89 66.6357 186.298C66.3532 185.705 66.2119 185.017 66.2119 184.233C66.2119 183.012 66.5173 182.062 67.1279 181.383C67.7386 180.699 68.5954 180.357 69.6982 180.357C70.7555 180.357 71.5941 180.706 72.2139 181.403C72.8382 182.096 73.1504 183.039 73.1504 184.233ZM67.4834 184.233C67.4834 185.177 67.668 185.895 68.0371 186.387C68.4108 186.874 68.96 187.118 69.6846 187.118C70.4001 187.118 70.9447 186.874 71.3184 186.387C71.6921 185.895 71.8789 185.177 71.8789 184.233C71.8789 183.29 71.6898 182.581 71.3115 182.107C70.9378 181.629 70.3887 181.39 69.6641 181.39C68.2103 181.39 67.4834 182.338 67.4834 184.233ZM79.7402 188L79.501 186.934H79.4463C79.0726 187.403 78.6989 187.722 78.3252 187.891C77.9561 188.055 77.4889 188.137 76.9238 188.137C76.1855 188.137 75.6068 187.943 75.1875 187.556C74.7682 187.168 74.5586 186.621 74.5586 185.915C74.5586 184.393 75.7594 183.595 78.1611 183.522L79.4326 183.475V183.03C79.4326 182.461 79.3096 182.041 79.0635 181.772C78.8174 181.499 78.4232 181.362 77.8809 181.362C77.4844 181.362 77.1084 181.422 76.7529 181.54C76.402 181.659 76.0716 181.791 75.7617 181.937L75.3857 181.014C75.764 180.813 76.1764 180.656 76.623 180.542C77.0697 180.428 77.5117 180.371 77.9492 180.371C78.8561 180.371 79.5306 180.572 79.9727 180.973C80.4147 181.374 80.6357 182.012 80.6357 182.887V188H79.7402ZM77.2041 187.146C77.8923 187.146 78.4323 186.961 78.8242 186.592C79.2207 186.218 79.4189 185.689 79.4189 185.006V184.329L78.3115 184.377C77.4502 184.409 76.8213 184.546 76.4248 184.787C76.0329 185.029 75.8369 185.409 75.8369 185.929C75.8369 186.321 75.9554 186.621 76.1924 186.831C76.4339 187.041 76.7712 187.146 77.2041 187.146ZM85.626 188.137C84.6507 188.137 83.8942 187.799 83.3564 187.125C82.8187 186.451 82.5498 185.496 82.5498 184.261C82.5498 183.035 82.8187 182.078 83.3564 181.39C83.8988 180.701 84.6598 180.357 85.6396 180.357C86.6468 180.357 87.4215 180.727 87.9639 181.465H88.0527C88.0391 181.374 88.0208 181.191 87.998 180.918C87.9753 180.64 87.9639 180.453 87.9639 180.357V177.363H89.1943V188H88.2031L88.0186 186.995H87.9639C87.4398 187.756 86.6605 188.137 85.626 188.137ZM85.8242 187.118C86.5716 187.118 87.1162 186.915 87.458 186.51C87.8044 186.1 87.9775 185.43 87.9775 184.5V184.274C87.9775 183.231 87.8021 182.488 87.4512 182.046C87.1048 181.599 86.5579 181.376 85.8105 181.376C85.1771 181.376 84.6872 181.629 84.3408 182.135C83.9945 182.636 83.8213 183.354 83.8213 184.288C83.8213 185.218 83.9922 185.922 84.334 186.4C84.6803 186.879 85.1771 187.118 85.8242 187.118Z" fill="#595959"/>
<path d="M27.083 102.989C27.083 104.589 26.6774 105.847 25.8662 106.763C25.0596 107.679 23.9294 108.137 22.4756 108.137C21.0036 108.137 19.8643 107.688 19.0576 106.79C18.2555 105.888 17.8545 104.616 17.8545 102.976C17.8545 101.349 18.2533 100.089 19.0508 99.1953C19.8529 98.2975 20.999 97.8486 22.4893 97.8486C23.9385 97.8486 25.0664 98.3044 25.873 99.2158C26.6797 100.123 27.083 101.381 27.083 102.989ZM19.1807 102.989C19.1807 104.311 19.4609 105.318 20.0215 106.011C20.582 106.703 21.4001 107.05 22.4756 107.05C23.5465 107.05 24.36 106.708 24.916 106.024C25.472 105.341 25.75 104.329 25.75 102.989C25.75 101.654 25.4743 100.649 24.9229 99.9746C24.3714 99.2956 23.5602 98.9561 22.4893 98.9561C21.4046 98.9561 20.582 99.3001 20.0215 99.9883C19.4609 100.672 19.1807 101.672 19.1807 102.989ZM36.6055 108H35.1221L31.5742 103.229L30.5557 104.124V108H29.2979V98.0059H30.5557V102.935L31.417 101.984L34.9785 98.0059H36.4482L32.4902 102.36L36.6055 108Z" fill="#595959"/>
<rect x="17.5" y="118.5" width="535" height="24" stroke="#CED7D4"/>
<rect x="18" y="119" width="349" height="23" fill="#4CA2A8"/>
<path d="M366 151L371.196 160.75H360.804L366 151Z" fill="#4CA2A8"/>
<rect x="17.5" y="198.5" width="535" height="24" stroke="#CED7D4"/>
<rect x="18" y="199" width="95" height="23" fill="#E6B056"/>
<path d="M113 231L118.196 240.75H107.804L113 231Z" fill="#E6B056"/>
<path d="M31 72L36.1962 81.75H25.8038L31 72Z" fill="#E6B056"/>
<path d="M381.106 153.37C381.106 152.866 381.232 152.404 381.484 151.984C381.736 151.564 382.114 151.242 382.618 150.99C383.122 150.738 383.738 150.612 384.466 150.612C385.18 150.612 385.796 150.738 386.3 150.99C386.804 151.242 387.196 151.564 387.448 151.984C387.7 152.404 387.826 152.866 387.826 153.37C387.826 153.902 387.686 154.364 387.42 154.756C387.154 155.148 386.804 155.456 386.37 155.666C386.902 155.862 387.322 156.184 387.63 156.632C387.938 157.08 388.092 157.598 388.092 158.186C388.092 158.802 387.938 159.334 387.63 159.796C387.322 160.272 386.888 160.622 386.342 160.874C385.782 161.126 385.166 161.252 384.466 161.252C383.766 161.252 383.136 161.126 382.59 160.874C382.044 160.622 381.624 160.272 381.316 159.796C381.008 159.334 380.854 158.802 380.854 158.186C380.854 157.584 381.008 157.066 381.316 156.618C381.624 156.184 382.03 155.862 382.562 155.666C381.582 155.19 381.106 154.42 381.106 153.37ZM385.81 152.362C385.474 152.082 385.026 151.942 384.466 151.942C383.906 151.942 383.458 152.082 383.136 152.362C382.8 152.642 382.646 153.048 382.646 153.58C382.646 154.056 382.814 154.434 383.15 154.728C383.486 155.022 383.934 155.162 384.466 155.162C384.998 155.162 385.432 155.022 385.782 154.714C386.118 154.42 386.3 154.042 386.3 153.566C386.3 153.048 386.132 152.642 385.81 152.362ZM382.954 156.828C382.562 157.136 382.38 157.57 382.38 158.13C382.38 158.662 382.562 159.096 382.94 159.432C383.304 159.768 383.822 159.922 384.466 159.922C385.096 159.922 385.6 159.754 385.964 159.418C386.328 159.082 386.524 158.662 386.524 158.13C386.524 157.57 386.328 157.136 385.95 156.828C385.572 156.52 385.082 156.366 384.466 156.366C383.85 156.366 383.346 156.52 382.954 156.828ZM394.696 151.27V157.472C394.696 158.214 394.878 158.774 395.27 159.138C395.662 159.516 396.194 159.698 396.894 159.698C397.594 159.698 398.126 159.516 398.518 159.138C398.91 158.774 399.106 158.214 399.106 157.472V151.27H400.702V157.444C400.702 158.242 400.52 158.914 400.184 159.46C399.834 160.02 399.372 160.426 398.798 160.692C398.21 160.972 397.58 161.098 396.88 161.098C396.18 161.098 395.536 160.972 394.962 160.692C394.388 160.426 393.94 160.02 393.604 159.46C393.268 158.914 393.1 158.242 393.1 157.444V151.27H394.696ZM408.046 153.538C408.522 153.79 408.9 154.168 409.18 154.658C409.446 155.162 409.586 155.75 409.586 156.45V161H408.004V156.688C408.004 156.002 407.822 155.47 407.486 155.106C407.136 154.742 406.66 154.546 406.072 154.546C405.47 154.546 404.994 154.742 404.644 155.106C404.294 155.47 404.126 156.002 404.126 156.688V161H402.53V153.286H404.126V154.168C404.378 153.86 404.714 153.608 405.12 153.426C405.526 153.258 405.96 153.16 406.422 153.16C407.024 153.16 407.57 153.286 408.046 153.538ZM411.456 151.97C411.26 151.774 411.162 151.536 411.162 151.242C411.162 150.962 411.26 150.71 411.456 150.514C411.652 150.318 411.89 150.22 412.184 150.22C412.464 150.22 412.702 150.318 412.898 150.514C413.094 150.71 413.192 150.962 413.192 151.242C413.192 151.536 413.094 151.774 412.898 151.97C412.702 152.166 412.464 152.264 412.184 152.264C411.89 152.264 411.652 152.166 411.456 151.97ZM412.968 153.286V161H411.372V153.286H412.968ZM416.676 154.588V158.858C416.676 159.152 416.732 159.362 416.872 159.488C417.012 159.614 417.236 159.67 417.572 159.67H418.552V161H417.292C416.564 161 416.018 160.832 415.64 160.496C415.248 160.16 415.066 159.614 415.066 158.858V154.588H414.156V153.286H415.066V151.368H416.676V153.286H418.552V154.588H416.676ZM420.935 160.804C420.459 160.58 420.081 160.286 419.801 159.908C419.521 159.53 419.367 159.11 419.353 158.634H421.005C421.033 158.97 421.187 159.236 421.467 159.46C421.747 159.684 422.111 159.782 422.545 159.782C422.993 159.782 423.329 159.698 423.581 159.53C423.833 159.362 423.959 159.138 423.959 158.858C423.959 158.578 423.819 158.354 423.539 158.214C423.259 158.074 422.825 157.92 422.237 157.752C421.649 157.598 421.187 157.444 420.823 157.29C420.459 157.15 420.137 156.912 419.871 156.604C419.605 156.296 419.479 155.89 419.479 155.386C419.479 154.98 419.591 154.602 419.843 154.266C420.081 153.93 420.431 153.65 420.879 153.454C421.327 153.258 421.859 153.16 422.447 153.16C423.315 153.16 424.029 153.384 424.561 153.832C425.093 154.28 425.387 154.882 425.429 155.638H423.833C423.805 155.302 423.665 155.022 423.413 154.812C423.161 154.616 422.811 154.504 422.391 154.504C421.971 154.504 421.649 154.588 421.425 154.742C421.201 154.91 421.089 155.12 421.089 155.372C421.089 155.582 421.159 155.75 421.313 155.89C421.453 156.03 421.635 156.142 421.859 156.226C422.069 156.31 422.391 156.408 422.811 156.52C423.371 156.674 423.819 156.828 424.183 156.982C424.547 157.136 424.855 157.36 425.121 157.654C425.373 157.962 425.513 158.354 425.527 158.844C425.527 159.292 425.401 159.684 425.163 160.02C424.911 160.37 424.575 160.636 424.127 160.832C423.679 161.028 423.161 161.126 422.573 161.126C421.957 161.126 421.411 161.028 420.935 160.804Z" fill="#595959"/>
<path d="M130.806 232.284C131.422 231.808 132.206 231.556 133.158 231.556C133.802 231.556 134.376 231.682 134.852 231.906C135.328 232.144 135.678 232.466 135.93 232.858C136.168 233.264 136.294 233.712 136.294 234.216C136.294 234.804 136.14 235.294 135.832 235.7C135.524 236.12 135.146 236.386 134.726 236.526V236.582C135.272 236.75 135.706 237.058 136.014 237.506C136.322 237.954 136.476 238.514 136.476 239.2C136.476 239.76 136.35 240.25 136.098 240.67C135.846 241.104 135.468 241.44 134.978 241.692C134.474 241.944 133.886 242.056 133.2 242.056C132.192 242.056 131.352 241.804 130.708 241.286C130.064 240.768 129.714 240.026 129.672 239.046H131.212C131.24 239.55 131.436 239.956 131.786 240.264C132.122 240.572 132.598 240.726 133.186 240.726C133.746 240.726 134.194 240.572 134.502 240.264C134.81 239.956 134.964 239.55 134.964 239.046C134.964 238.402 134.754 237.94 134.334 237.66C133.914 237.38 133.284 237.24 132.43 237.24H132.066V235.924H132.444C133.2 235.924 133.774 235.798 134.166 235.546C134.558 235.308 134.768 234.93 134.768 234.398C134.768 233.95 134.614 233.6 134.334 233.334C134.04 233.068 133.634 232.928 133.102 232.928C132.57 232.928 132.164 233.068 131.884 233.334C131.59 233.6 131.422 233.922 131.366 234.314H129.812C129.868 233.446 130.19 232.774 130.806 232.284ZM143.081 232.27V238.472C143.081 239.214 143.263 239.774 143.655 240.138C144.047 240.516 144.579 240.698 145.279 240.698C145.979 240.698 146.511 240.516 146.903 240.138C147.295 239.774 147.491 239.214 147.491 238.472V232.27H149.087V238.444C149.087 239.242 148.905 239.914 148.569 240.46C148.219 241.02 147.757 241.426 147.183 241.692C146.595 241.972 145.965 242.098 145.265 242.098C144.565 242.098 143.921 241.972 143.347 241.692C142.773 241.426 142.325 241.02 141.989 240.46C141.653 239.914 141.485 239.242 141.485 238.444V232.27H143.081ZM156.431 234.538C156.907 234.79 157.285 235.168 157.565 235.658C157.831 236.162 157.971 236.75 157.971 237.45V242H156.389V237.688C156.389 237.002 156.207 236.47 155.871 236.106C155.521 235.742 155.045 235.546 154.457 235.546C153.855 235.546 153.379 235.742 153.029 236.106C152.679 236.47 152.511 237.002 152.511 237.688V242H150.915V234.286H152.511V235.168C152.763 234.86 153.099 234.608 153.505 234.426C153.911 234.258 154.345 234.16 154.807 234.16C155.409 234.16 155.955 234.286 156.431 234.538ZM159.841 232.97C159.645 232.774 159.547 232.536 159.547 232.242C159.547 231.962 159.645 231.71 159.841 231.514C160.037 231.318 160.275 231.22 160.569 231.22C160.849 231.22 161.087 231.318 161.283 231.514C161.479 231.71 161.577 231.962 161.577 232.242C161.577 232.536 161.479 232.774 161.283 232.97C161.087 233.166 160.849 233.264 160.569 233.264C160.275 233.264 160.037 233.166 159.841 232.97ZM161.353 234.286V242H159.757V234.286H161.353ZM165.06 235.588V239.858C165.06 240.152 165.116 240.362 165.256 240.488C165.396 240.614 165.62 240.67 165.956 240.67H166.936V242H165.676C164.948 242 164.402 241.832 164.024 241.496C163.632 241.16 163.45 240.614 163.45 239.858V235.588H162.54V234.286H163.45V232.368H165.06V234.286H166.936V235.588H165.06ZM169.319 241.804C168.843 241.58 168.465 241.286 168.185 240.908C167.905 240.53 167.751 240.11 167.737 239.634H169.389C169.417 239.97 169.571 240.236 169.851 240.46C170.131 240.684 170.495 240.782 170.929 240.782C171.377 240.782 171.713 240.698 171.965 240.53C172.217 240.362 172.343 240.138 172.343 239.858C172.343 239.578 172.203 239.354 171.923 239.214C171.643 239.074 171.209 238.92 170.621 238.752C170.033 238.598 169.571 238.444 169.207 238.29C168.843 238.15 168.521 237.912 168.255 237.604C167.989 237.296 167.863 236.89 167.863 236.386C167.863 235.98 167.975 235.602 168.227 235.266C168.465 234.93 168.815 234.65 169.263 234.454C169.711 234.258 170.243 234.16 170.831 234.16C171.699 234.16 172.413 234.384 172.945 234.832C173.477 235.28 173.771 235.882 173.813 236.638H172.217C172.189 236.302 172.049 236.022 171.797 235.812C171.545 235.616 171.195 235.504 170.775 235.504C170.355 235.504 170.033 235.588 169.809 235.742C169.585 235.91 169.473 236.12 169.473 236.372C169.473 236.582 169.543 236.75 169.697 236.89C169.837 237.03 170.019 237.142 170.243 237.226C170.453 237.31 170.775 237.408 171.195 237.52C171.755 237.674 172.203 237.828 172.567 237.982C172.931 238.136 173.239 238.36 173.505 238.654C173.757 238.962 173.897 239.354 173.911 239.844C173.911 240.292 173.785 240.684 173.547 241.02C173.295 241.37 172.959 241.636 172.511 241.832C172.063 242.028 171.545 242.126 170.957 242.126C170.341 242.126 169.795 242.028 169.319 241.804Z" fill="#595959"/>
<rect x="0.5" y="0.5" width="577" height="258" rx="3.5" stroke="#CED7D4"/>
</svg>
