<svg width="578" height="259" viewBox="0 0 578 259" fill="none" xmlns="http://www.w3.org/2000/svg">
<rect x="0.5" y="0.5" width="577" height="258" rx="3.5" fill="white"/>
<rect x="17.5" y="38.5" width="535" height="24" stroke="#CED7D4"/>
<rect x="18" y="39" width="14" height="23" fill="#E6B056"/>
<path d="M42.63 73.25V71.794H45.542V82H43.932V73.25H42.63ZM52.6633 72.27V78.472C52.6633 79.214 52.8453 79.774 53.2373 80.138C53.6292 80.516 54.1613 80.698 54.8613 80.698C55.5613 80.698 56.0933 80.516 56.4853 80.138C56.8773 79.774 57.0733 79.214 57.0733 78.472V72.27H58.6693V78.444C58.6693 79.242 58.4873 79.914 58.1513 80.46C57.8013 81.02 57.3393 81.426 56.7653 81.692C56.1773 81.972 55.5473 82.098 54.8473 82.098C54.1472 82.098 53.5033 81.972 52.9293 81.692C52.3553 81.426 51.9073 81.02 51.5713 80.46C51.2353 79.914 51.0673 79.242 51.0673 78.444V72.27H52.6633ZM66.0133 74.538C66.4893 74.79 66.8673 75.168 67.1473 75.658C67.4133 76.162 67.5533 76.75 67.5533 77.45V82H65.9713V77.688C65.9713 77.002 65.7893 76.47 65.4533 76.106C65.1033 75.742 64.6273 75.546 64.0393 75.546C63.4373 75.546 62.9613 75.742 62.6113 76.106C62.2613 76.47 62.0933 77.002 62.0933 77.688V82H60.4973V74.286H62.0933V75.168C62.3453 74.86 62.6813 74.608 63.0873 74.426C63.4933 74.258 63.9273 74.16 64.3893 74.16C64.9913 74.16 65.5373 74.286 66.0133 74.538ZM69.4231 72.97C69.2271 72.774 69.1291 72.536 69.1291 72.242C69.1291 71.962 69.2271 71.71 69.4231 71.514C69.6191 71.318 69.8571 71.22 70.1511 71.22C70.4311 71.22 70.6691 71.318 70.8651 71.514C71.0611 71.71 71.1591 71.962 71.1591 72.242C71.1591 72.536 71.0611 72.774 70.8651 72.97C70.6691 73.166 70.4311 73.264 70.1511 73.264C69.8571 73.264 69.6191 73.166 69.4231 72.97ZM70.9351 74.286V82H69.3391V74.286H70.9351ZM74.6425 75.588V79.858C74.6425 80.152 74.6985 80.362 74.8385 80.488C74.9785 80.614 75.2025 80.67 75.5385 80.67H76.5185V82H75.2585C74.5305 82 73.9845 81.832 73.6065 81.496C73.2145 81.16 73.0325 80.614 73.0325 79.858V75.588H72.1225V74.286H73.0325V72.368H74.6425V74.286H76.5185V75.588H74.6425Z" fill="#595959"/>
<path d="M27.083 22.9893C27.083 24.5889 26.6774 25.8467 25.8662 26.7627C25.0596 27.6787 23.9294 28.1367 22.4756 28.1367C21.0036 28.1367 19.8643 27.6878 19.0576 26.79C18.2555 25.8877 17.8545 24.6162 17.8545 22.9756C17.8545 21.3486 18.2533 20.0885 19.0508 19.1953C19.8529 18.2975 20.999 17.8486 22.4893 17.8486C23.9385 17.8486 25.0664 18.3044 25.873 19.2158C26.6797 20.1227 27.083 21.3805 27.083 22.9893ZM19.1807 22.9893C19.1807 24.3109 19.4609 25.318 20.0215 26.0107C20.582 26.7035 21.4001 27.0498 22.4756 27.0498C23.5465 27.0498 24.36 26.708 24.916 26.0244C25.472 25.3408 25.75 24.3291 25.75 22.9893C25.75 21.654 25.4743 20.6491 24.9229 19.9746C24.3714 19.2956 23.5602 18.9561 22.4893 18.9561C21.4046 18.9561 20.582 19.3001 20.0215 19.9883C19.4609 20.6719 19.1807 21.6722 19.1807 22.9893ZM30.7812 28L27.9375 20.4941H29.2568L30.8496 24.917C31.1641 25.8057 31.3646 26.4688 31.4512 26.9062H31.5059C31.5195 26.847 31.5355 26.7809 31.5537 26.708C31.5765 26.6305 31.6016 26.5485 31.6289 26.4619C31.6562 26.3708 31.8249 25.8558 32.1348 24.917L33.7344 20.4941H35.0469L32.1963 28H30.7812ZM39.4287 28.1367C38.3031 28.1367 37.4189 27.7972 36.7764 27.1182C36.1383 26.4346 35.8193 25.4958 35.8193 24.3018C35.8193 23.0986 36.1178 22.1416 36.7148 21.4307C37.3118 20.7152 38.1185 20.3574 39.1348 20.3574C40.0781 20.3574 40.8301 20.6628 41.3906 21.2734C41.9512 21.8796 42.2314 22.7021 42.2314 23.7412V24.4863H37.0908C37.1136 25.3385 37.3301 25.9857 37.7402 26.4277C38.1504 26.8698 38.7314 27.0908 39.4834 27.0908C39.8844 27.0908 40.265 27.0566 40.625 26.9883C40.985 26.9154 41.4066 26.7764 41.8896 26.5713V27.6514C41.4749 27.8291 41.0853 27.9544 40.7207 28.0273C40.3561 28.1003 39.9255 28.1367 39.4287 28.1367ZM39.1211 21.3623C38.5332 21.3623 38.0684 21.5514 37.7266 21.9297C37.3848 22.3079 37.182 22.8343 37.1182 23.5088H40.9395C40.9303 22.807 40.7686 22.2738 40.4541 21.9092C40.1396 21.5446 39.6953 21.3623 39.1211 21.3623ZM47.6387 20.3574C47.9714 20.3574 48.2653 20.3848 48.5205 20.4395L48.3701 21.5742C48.0921 21.5104 47.821 21.4785 47.5566 21.4785C47.1602 21.4785 46.791 21.5879 46.4492 21.8066C46.112 22.0254 45.8477 22.3285 45.6562 22.7158C45.4648 23.0986 45.3691 23.5247 45.3691 23.9941V28H44.1387V20.4941H45.1504L45.2871 21.8682H45.3418C45.6289 21.3714 45.9684 20.9954 46.3604 20.7402C46.7523 20.485 47.1784 20.3574 47.6387 20.3574ZM54.7891 28H53.5586V17.3633H54.7891V28ZM63.6895 24.2334C63.6895 25.4593 63.3796 26.4163 62.7598 27.1045C62.14 27.7926 61.2832 28.1367 60.1895 28.1367C59.5104 28.1367 58.9089 27.9795 58.3848 27.665C57.8607 27.346 57.4574 26.8903 57.1748 26.2979C56.8923 25.7054 56.751 25.0173 56.751 24.2334C56.751 23.012 57.0563 22.0618 57.667 21.3828C58.2777 20.6992 59.1344 20.3574 60.2373 20.3574C61.2946 20.3574 62.1331 20.7061 62.7529 21.4033C63.3773 22.096 63.6895 23.0394 63.6895 24.2334ZM58.0225 24.2334C58.0225 25.1768 58.207 25.8945 58.5762 26.3867C58.9499 26.8743 59.499 27.1182 60.2236 27.1182C60.9391 27.1182 61.4837 26.8743 61.8574 26.3867C62.2311 25.8945 62.418 25.1768 62.418 24.2334C62.418 23.29 62.2288 22.5814 61.8506 22.1074C61.4769 21.6289 60.9277 21.3896 60.2031 21.3896C58.7493 21.3896 58.0225 22.3376 58.0225 24.2334ZM70.2793 28L70.04 26.9336H69.9854C69.6117 27.403 69.238 27.722 68.8643 27.8906C68.4951 28.0547 68.028 28.1367 67.4629 28.1367C66.7246 28.1367 66.1458 27.943 65.7266 27.5557C65.3073 27.1683 65.0977 26.6214 65.0977 25.915C65.0977 24.3929 66.2985 23.5954 68.7002 23.5225L69.9717 23.4746V23.0303C69.9717 22.4606 69.8486 22.0413 69.6025 21.7725C69.3564 21.499 68.9622 21.3623 68.4199 21.3623C68.0234 21.3623 67.6475 21.4215 67.292 21.54C66.9411 21.6585 66.6107 21.7907 66.3008 21.9365L65.9248 21.0137C66.3031 20.8132 66.7155 20.6559 67.1621 20.542C67.6087 20.4281 68.0508 20.3711 68.4883 20.3711C69.3952 20.3711 70.0697 20.5716 70.5117 20.9727C70.9538 21.3737 71.1748 22.0117 71.1748 22.8867V28H70.2793ZM67.7432 27.1455C68.4313 27.1455 68.9714 26.9609 69.3633 26.5918C69.7598 26.2181 69.958 25.6895 69.958 25.0059V24.3291L68.8506 24.377C67.9893 24.4089 67.3604 24.5456 66.9639 24.7871C66.5719 25.0286 66.376 25.4092 66.376 25.9287C66.376 26.3206 66.4945 26.6214 66.7314 26.8311C66.973 27.0407 67.3102 27.1455 67.7432 27.1455ZM76.165 28.1367C75.1898 28.1367 74.4333 27.7995 73.8955 27.125C73.3577 26.4505 73.0889 25.4958 73.0889 24.2607C73.0889 23.0348 73.3577 22.0778 73.8955 21.3896C74.4378 20.7015 75.1989 20.3574 76.1787 20.3574C77.1859 20.3574 77.9606 20.7266 78.5029 21.4648H78.5918C78.5781 21.3737 78.5599 21.1914 78.5371 20.918C78.5143 20.64 78.5029 20.4531 78.5029 20.3574V17.3633H79.7334V28H78.7422L78.5576 26.9951H78.5029C77.9788 27.7562 77.1995 28.1367 76.165 28.1367ZM76.3633 27.1182C77.1107 27.1182 77.6553 26.9154 77.9971 26.5098C78.3434 26.0996 78.5166 25.4297 78.5166 24.5V24.2744C78.5166 23.2308 78.3411 22.488 77.9902 22.0459C77.6439 21.5993 77.097 21.376 76.3496 21.376C75.7161 21.376 75.2262 21.6289 74.8799 22.1348C74.5335 22.6361 74.3604 23.3538 74.3604 24.2881C74.3604 25.2178 74.5312 25.9219 74.873 26.4004C75.2194 26.8789 75.7161 27.1182 76.3633 27.1182Z" fill="#595959"/>
<path d="M27.083 103.989C27.083 105.589 26.6774 106.847 25.8662 107.763C25.0596 108.679 23.9294 109.137 22.4756 109.137C21.0036 109.137 19.8643 108.688 19.0576 107.79C18.2555 106.888 17.8545 105.616 17.8545 103.976C17.8545 102.349 18.2533 101.089 19.0508 100.195C19.8529 99.2975 20.999 98.8486 22.4893 98.8486C23.9385 98.8486 25.0664 99.3044 25.873 100.216C26.6797 101.123 27.083 102.381 27.083 103.989ZM19.1807 103.989C19.1807 105.311 19.4609 106.318 20.0215 107.011C20.582 107.703 21.4001 108.05 22.4756 108.05C23.5465 108.05 24.36 107.708 24.916 107.024C25.472 106.341 25.75 105.329 25.75 103.989C25.75 102.654 25.4743 101.649 24.9229 100.975C24.3714 100.296 23.5602 99.9561 22.4893 99.9561C21.4046 99.9561 20.582 100.3 20.0215 100.988C19.4609 101.672 19.1807 102.672 19.1807 103.989ZM36.6055 109H35.1221L31.5742 104.229L30.5557 105.124V109H29.2979V99.0059H30.5557V103.935L31.417 102.984L34.9785 99.0059H36.4482L32.4902 103.36L36.6055 109Z" fill="#595959"/>
<path d="M25.9619 179.006V185.473C25.9619 186.612 25.6178 187.507 24.9297 188.159C24.2415 188.811 23.2868 189.137 22.0654 189.137C20.8577 189.137 19.9212 188.809 19.2559 188.152C18.5905 187.492 18.2578 186.589 18.2578 185.445V179.006H19.5225V185.486C19.5225 186.302 19.7389 186.933 20.1719 187.38C20.6094 187.826 21.2656 188.05 22.1406 188.05C22.9655 188.05 23.599 187.829 24.041 187.387C24.4876 186.945 24.7109 186.307 24.7109 185.473V179.006H25.9619ZM33.543 189V184.201C33.543 183.59 33.4062 183.137 33.1328 182.841C32.8639 182.54 32.4401 182.39 31.8613 182.39C31.0911 182.39 30.5306 182.604 30.1797 183.032C29.8333 183.456 29.6602 184.149 29.6602 185.11V189H28.4297V181.494H29.4209L29.6055 182.52H29.6738C29.9062 182.15 30.2321 181.866 30.6514 181.665C31.0706 181.46 31.5332 181.357 32.0391 181.357C32.9596 181.357 33.6432 181.581 34.0898 182.027C34.5365 182.474 34.7598 183.169 34.7598 184.112V189H33.543ZM39.7432 189.137C38.7679 189.137 38.0114 188.799 37.4736 188.125C36.9359 187.451 36.667 186.496 36.667 185.261C36.667 184.035 36.9359 183.078 37.4736 182.39C38.016 181.701 38.777 181.357 39.7568 181.357C40.764 181.357 41.5387 181.727 42.0811 182.465H42.1699C42.1562 182.374 42.138 182.191 42.1152 181.918C42.0924 181.64 42.0811 181.453 42.0811 181.357V178.363H43.3115V189H42.3203L42.1357 187.995H42.0811C41.557 188.756 40.7777 189.137 39.7432 189.137ZM39.9414 188.118C40.6888 188.118 41.2334 187.915 41.5752 187.51C41.9215 187.1 42.0947 186.43 42.0947 185.5V185.274C42.0947 184.231 41.9193 183.488 41.5684 183.046C41.222 182.599 40.6751 182.376 39.9277 182.376C39.2943 182.376 38.8044 182.629 38.458 183.135C38.1117 183.636 37.9385 184.354 37.9385 185.288C37.9385 186.218 38.1094 186.922 38.4512 187.4C38.7975 187.879 39.2943 188.118 39.9414 188.118ZM48.8896 189.137C47.764 189.137 46.8799 188.797 46.2373 188.118C45.5993 187.435 45.2803 186.496 45.2803 185.302C45.2803 184.099 45.5788 183.142 46.1758 182.431C46.7728 181.715 47.5794 181.357 48.5957 181.357C49.5391 181.357 50.291 181.663 50.8516 182.273C51.4121 182.88 51.6924 183.702 51.6924 184.741V185.486H46.5518C46.5745 186.339 46.791 186.986 47.2012 187.428C47.6113 187.87 48.1924 188.091 48.9443 188.091C49.3454 188.091 49.7259 188.057 50.0859 187.988C50.446 187.915 50.8675 187.776 51.3506 187.571V188.651C50.9359 188.829 50.5462 188.954 50.1816 189.027C49.8171 189.1 49.3864 189.137 48.8896 189.137ZM48.582 182.362C47.9941 182.362 47.5293 182.551 47.1875 182.93C46.8457 183.308 46.6429 183.834 46.5791 184.509H50.4004C50.3913 183.807 50.2295 183.274 49.915 182.909C49.6006 182.545 49.1562 182.362 48.582 182.362ZM57.0996 181.357C57.4323 181.357 57.7262 181.385 57.9814 181.439L57.8311 182.574C57.5531 182.51 57.2819 182.479 57.0176 182.479C56.6211 182.479 56.252 182.588 55.9102 182.807C55.5729 183.025 55.3086 183.328 55.1172 183.716C54.9258 184.099 54.8301 184.525 54.8301 184.994V189H53.5996V181.494H54.6113L54.748 182.868H54.8027C55.0898 182.371 55.4294 181.995 55.8213 181.74C56.2132 181.485 56.6393 181.357 57.0996 181.357ZM64.25 189H63.0195V178.363H64.25V189ZM73.1504 185.233C73.1504 186.459 72.8405 187.416 72.2207 188.104C71.6009 188.793 70.7441 189.137 69.6504 189.137C68.9714 189.137 68.3698 188.979 67.8457 188.665C67.3216 188.346 66.9183 187.89 66.6357 187.298C66.3532 186.705 66.2119 186.017 66.2119 185.233C66.2119 184.012 66.5173 183.062 67.1279 182.383C67.7386 181.699 68.5954 181.357 69.6982 181.357C70.7555 181.357 71.5941 181.706 72.2139 182.403C72.8382 183.096 73.1504 184.039 73.1504 185.233ZM67.4834 185.233C67.4834 186.177 67.668 186.895 68.0371 187.387C68.4108 187.874 68.96 188.118 69.6846 188.118C70.4001 188.118 70.9447 187.874 71.3184 187.387C71.6921 186.895 71.8789 186.177 71.8789 185.233C71.8789 184.29 71.6898 183.581 71.3115 183.107C70.9378 182.629 70.3887 182.39 69.6641 182.39C68.2103 182.39 67.4834 183.338 67.4834 185.233ZM79.7402 189L79.501 187.934H79.4463C79.0726 188.403 78.6989 188.722 78.3252 188.891C77.9561 189.055 77.4889 189.137 76.9238 189.137C76.1855 189.137 75.6068 188.943 75.1875 188.556C74.7682 188.168 74.5586 187.621 74.5586 186.915C74.5586 185.393 75.7594 184.595 78.1611 184.522L79.4326 184.475V184.03C79.4326 183.461 79.3096 183.041 79.0635 182.772C78.8174 182.499 78.4232 182.362 77.8809 182.362C77.4844 182.362 77.1084 182.422 76.7529 182.54C76.402 182.659 76.0716 182.791 75.7617 182.937L75.3857 182.014C75.764 181.813 76.1764 181.656 76.623 181.542C77.0697 181.428 77.5117 181.371 77.9492 181.371C78.8561 181.371 79.5306 181.572 79.9727 181.973C80.4147 182.374 80.6357 183.012 80.6357 183.887V189H79.7402ZM77.2041 188.146C77.8923 188.146 78.4323 187.961 78.8242 187.592C79.2207 187.218 79.4189 186.689 79.4189 186.006V185.329L78.3115 185.377C77.4502 185.409 76.8213 185.546 76.4248 185.787C76.0329 186.029 75.8369 186.409 75.8369 186.929C75.8369 187.321 75.9554 187.621 76.1924 187.831C76.4339 188.041 76.7712 188.146 77.2041 188.146ZM85.626 189.137C84.6507 189.137 83.8942 188.799 83.3564 188.125C82.8187 187.451 82.5498 186.496 82.5498 185.261C82.5498 184.035 82.8187 183.078 83.3564 182.39C83.8988 181.701 84.6598 181.357 85.6396 181.357C86.6468 181.357 87.4215 181.727 87.9639 182.465H88.0527C88.0391 182.374 88.0208 182.191 87.998 181.918C87.9753 181.64 87.9639 181.453 87.9639 181.357V178.363H89.1943V189H88.2031L88.0186 187.995H87.9639C87.4398 188.756 86.6605 189.137 85.626 189.137ZM85.8242 188.118C86.5716 188.118 87.1162 187.915 87.458 187.51C87.8044 187.1 87.9775 186.43 87.9775 185.5V185.274C87.9775 184.231 87.8021 183.488 87.4512 183.046C87.1048 182.599 86.5579 182.376 85.8105 182.376C85.1771 182.376 84.6872 182.629 84.3408 183.135C83.9945 183.636 83.8213 184.354 83.8213 185.288C83.8213 186.218 83.9922 186.922 84.334 187.4C84.6803 187.879 85.1771 188.118 85.8242 188.118Z" fill="#595959"/>
<rect x="17.5" y="118.5" width="535" height="24" stroke="#CED7D4"/>
<rect x="18" y="119" width="349" height="23" fill="#4CA2A8"/>
<path d="M366 151L371.196 160.75H360.804L366 151Z" fill="#4CA2A8"/>
<rect x="17.5" y="198.5" width="535" height="24" stroke="#CED7D4"/>
<rect x="18" y="199" width="95" height="23" fill="#E6B056"/>
<path d="M113 231L118.196 240.75H107.804L113 231Z" fill="#E6B056"/>
<path d="M31 72L36.1962 81.75H25.8038L31 72Z" fill="#E6B056"/>
<path d="M378.106 153.37C378.106 152.866 378.232 152.404 378.484 151.984C378.736 151.564 379.114 151.242 379.618 150.99C380.122 150.738 380.738 150.612 381.466 150.612C382.18 150.612 382.796 150.738 383.3 150.99C383.804 151.242 384.196 151.564 384.448 151.984C384.7 152.404 384.826 152.866 384.826 153.37C384.826 153.902 384.686 154.364 384.42 154.756C384.154 155.148 383.804 155.456 383.37 155.666C383.902 155.862 384.322 156.184 384.63 156.632C384.938 157.08 385.092 157.598 385.092 158.186C385.092 158.802 384.938 159.334 384.63 159.796C384.322 160.272 383.888 160.622 383.342 160.874C382.782 161.126 382.166 161.252 381.466 161.252C380.766 161.252 380.136 161.126 379.59 160.874C379.044 160.622 378.624 160.272 378.316 159.796C378.008 159.334 377.854 158.802 377.854 158.186C377.854 157.584 378.008 157.066 378.316 156.618C378.624 156.184 379.03 155.862 379.562 155.666C378.582 155.19 378.106 154.42 378.106 153.37ZM382.81 152.362C382.474 152.082 382.026 151.942 381.466 151.942C380.906 151.942 380.458 152.082 380.136 152.362C379.8 152.642 379.646 153.048 379.646 153.58C379.646 154.056 379.814 154.434 380.15 154.728C380.486 155.022 380.934 155.162 381.466 155.162C381.998 155.162 382.432 155.022 382.782 154.714C383.118 154.42 383.3 154.042 383.3 153.566C383.3 153.048 383.132 152.642 382.81 152.362ZM379.954 156.828C379.562 157.136 379.38 157.57 379.38 158.13C379.38 158.662 379.562 159.096 379.94 159.432C380.304 159.768 380.822 159.922 381.466 159.922C382.096 159.922 382.6 159.754 382.964 159.418C383.328 159.082 383.524 158.662 383.524 158.13C383.524 157.57 383.328 157.136 382.95 156.828C382.572 156.52 382.082 156.366 381.466 156.366C380.85 156.366 380.346 156.52 379.954 156.828ZM391.696 151.27V157.472C391.696 158.214 391.878 158.774 392.27 159.138C392.662 159.516 393.194 159.698 393.894 159.698C394.594 159.698 395.126 159.516 395.518 159.138C395.91 158.774 396.106 158.214 396.106 157.472V151.27H397.702V157.444C397.702 158.242 397.52 158.914 397.184 159.46C396.834 160.02 396.372 160.426 395.798 160.692C395.21 160.972 394.58 161.098 393.88 161.098C393.18 161.098 392.536 160.972 391.962 160.692C391.388 160.426 390.94 160.02 390.604 159.46C390.268 158.914 390.1 158.242 390.1 157.444V151.27H391.696ZM405.046 153.538C405.522 153.79 405.9 154.168 406.18 154.658C406.446 155.162 406.586 155.75 406.586 156.45V161H405.004V156.688C405.004 156.002 404.822 155.47 404.486 155.106C404.136 154.742 403.66 154.546 403.072 154.546C402.47 154.546 401.994 154.742 401.644 155.106C401.294 155.47 401.126 156.002 401.126 156.688V161H399.53V153.286H401.126V154.168C401.378 153.86 401.714 153.608 402.12 153.426C402.526 153.258 402.96 153.16 403.422 153.16C404.024 153.16 404.57 153.286 405.046 153.538ZM408.456 151.97C408.26 151.774 408.162 151.536 408.162 151.242C408.162 150.962 408.26 150.71 408.456 150.514C408.652 150.318 408.89 150.22 409.184 150.22C409.464 150.22 409.702 150.318 409.898 150.514C410.094 150.71 410.192 150.962 410.192 151.242C410.192 151.536 410.094 151.774 409.898 151.97C409.702 152.166 409.464 152.264 409.184 152.264C408.89 152.264 408.652 152.166 408.456 151.97ZM409.968 153.286V161H408.372V153.286H409.968ZM413.676 154.588V158.858C413.676 159.152 413.732 159.362 413.872 159.488C414.012 159.614 414.236 159.67 414.572 159.67H415.552V161H414.292C413.564 161 413.018 160.832 412.64 160.496C412.248 160.16 412.066 159.614 412.066 158.858V154.588H411.156V153.286H412.066V151.368H413.676V153.286H415.552V154.588H413.676ZM417.935 160.804C417.459 160.58 417.081 160.286 416.801 159.908C416.521 159.53 416.367 159.11 416.353 158.634H418.005C418.033 158.97 418.187 159.236 418.467 159.46C418.747 159.684 419.111 159.782 419.545 159.782C419.993 159.782 420.329 159.698 420.581 159.53C420.833 159.362 420.959 159.138 420.959 158.858C420.959 158.578 420.819 158.354 420.539 158.214C420.259 158.074 419.825 157.92 419.237 157.752C418.649 157.598 418.187 157.444 417.823 157.29C417.459 157.15 417.137 156.912 416.871 156.604C416.605 156.296 416.479 155.89 416.479 155.386C416.479 154.98 416.591 154.602 416.843 154.266C417.081 153.93 417.431 153.65 417.879 153.454C418.327 153.258 418.859 153.16 419.447 153.16C420.315 153.16 421.029 153.384 421.561 153.832C422.093 154.28 422.387 154.882 422.429 155.638H420.833C420.805 155.302 420.665 155.022 420.413 154.812C420.161 154.616 419.811 154.504 419.391 154.504C418.971 154.504 418.649 154.588 418.425 154.742C418.201 154.91 418.089 155.12 418.089 155.372C418.089 155.582 418.159 155.75 418.313 155.89C418.453 156.03 418.635 156.142 418.859 156.226C419.069 156.31 419.391 156.408 419.811 156.52C420.371 156.674 420.819 156.828 421.183 156.982C421.547 157.136 421.855 157.36 422.121 157.654C422.373 157.962 422.513 158.354 422.527 158.844C422.527 159.292 422.401 159.684 422.163 160.02C421.911 160.37 421.575 160.636 421.127 160.832C420.679 161.028 420.161 161.126 419.573 161.126C418.957 161.126 418.411 161.028 417.935 160.804Z" fill="#595959"/>
<path d="M127.806 231.284C128.422 230.808 129.206 230.556 130.158 230.556C130.802 230.556 131.376 230.682 131.852 230.906C132.328 231.144 132.678 231.466 132.93 231.858C133.168 232.264 133.294 232.712 133.294 233.216C133.294 233.804 133.14 234.294 132.832 234.7C132.524 235.12 132.146 235.386 131.726 235.526V235.582C132.272 235.75 132.706 236.058 133.014 236.506C133.322 236.954 133.476 237.514 133.476 238.2C133.476 238.76 133.35 239.25 133.098 239.67C132.846 240.104 132.468 240.44 131.978 240.692C131.474 240.944 130.886 241.056 130.2 241.056C129.192 241.056 128.352 240.804 127.708 240.286C127.064 239.768 126.714 239.026 126.672 238.046H128.212C128.24 238.55 128.436 238.956 128.786 239.264C129.122 239.572 129.598 239.726 130.186 239.726C130.746 239.726 131.194 239.572 131.502 239.264C131.81 238.956 131.964 238.55 131.964 238.046C131.964 237.402 131.754 236.94 131.334 236.66C130.914 236.38 130.284 236.24 129.43 236.24H129.066V234.924H129.444C130.2 234.924 130.774 234.798 131.166 234.546C131.558 234.308 131.768 233.93 131.768 233.398C131.768 232.95 131.614 232.6 131.334 232.334C131.04 232.068 130.634 231.928 130.102 231.928C129.57 231.928 129.164 232.068 128.884 232.334C128.59 232.6 128.422 232.922 128.366 233.314H126.812C126.868 232.446 127.19 231.774 127.806 231.284ZM140.081 231.27V237.472C140.081 238.214 140.263 238.774 140.655 239.138C141.047 239.516 141.579 239.698 142.279 239.698C142.979 239.698 143.511 239.516 143.903 239.138C144.295 238.774 144.491 238.214 144.491 237.472V231.27H146.087V237.444C146.087 238.242 145.905 238.914 145.569 239.46C145.219 240.02 144.757 240.426 144.183 240.692C143.595 240.972 142.965 241.098 142.265 241.098C141.565 241.098 140.921 240.972 140.347 240.692C139.773 240.426 139.325 240.02 138.989 239.46C138.653 238.914 138.485 238.242 138.485 237.444V231.27H140.081ZM153.431 233.538C153.907 233.79 154.285 234.168 154.565 234.658C154.831 235.162 154.971 235.75 154.971 236.45V241H153.389V236.688C153.389 236.002 153.207 235.47 152.871 235.106C152.521 234.742 152.045 234.546 151.457 234.546C150.855 234.546 150.379 234.742 150.029 235.106C149.679 235.47 149.511 236.002 149.511 236.688V241H147.915V233.286H149.511V234.168C149.763 233.86 150.099 233.608 150.505 233.426C150.911 233.258 151.345 233.16 151.807 233.16C152.409 233.16 152.955 233.286 153.431 233.538ZM156.841 231.97C156.645 231.774 156.547 231.536 156.547 231.242C156.547 230.962 156.645 230.71 156.841 230.514C157.037 230.318 157.275 230.22 157.569 230.22C157.849 230.22 158.087 230.318 158.283 230.514C158.479 230.71 158.577 230.962 158.577 231.242C158.577 231.536 158.479 231.774 158.283 231.97C158.087 232.166 157.849 232.264 157.569 232.264C157.275 232.264 157.037 232.166 156.841 231.97ZM158.353 233.286V241H156.757V233.286H158.353ZM162.06 234.588V238.858C162.06 239.152 162.116 239.362 162.256 239.488C162.396 239.614 162.62 239.67 162.956 239.67H163.936V241H162.676C161.948 241 161.402 240.832 161.024 240.496C160.632 240.16 160.45 239.614 160.45 238.858V234.588H159.54V233.286H160.45V231.368H162.06V233.286H163.936V234.588H162.06ZM166.319 240.804C165.843 240.58 165.465 240.286 165.185 239.908C164.905 239.53 164.751 239.11 164.737 238.634H166.389C166.417 238.97 166.571 239.236 166.851 239.46C167.131 239.684 167.495 239.782 167.929 239.782C168.377 239.782 168.713 239.698 168.965 239.53C169.217 239.362 169.343 239.138 169.343 238.858C169.343 238.578 169.203 238.354 168.923 238.214C168.643 238.074 168.209 237.92 167.621 237.752C167.033 237.598 166.571 237.444 166.207 237.29C165.843 237.15 165.521 236.912 165.255 236.604C164.989 236.296 164.863 235.89 164.863 235.386C164.863 234.98 164.975 234.602 165.227 234.266C165.465 233.93 165.815 233.65 166.263 233.454C166.711 233.258 167.243 233.16 167.831 233.16C168.699 233.16 169.413 233.384 169.945 233.832C170.477 234.28 170.771 234.882 170.813 235.638H169.217C169.189 235.302 169.049 235.022 168.797 234.812C168.545 234.616 168.195 234.504 167.775 234.504C167.355 234.504 167.033 234.588 166.809 234.742C166.585 234.91 166.473 235.12 166.473 235.372C166.473 235.582 166.543 235.75 166.697 235.89C166.837 236.03 167.019 236.142 167.243 236.226C167.453 236.31 167.775 236.408 168.195 236.52C168.755 236.674 169.203 236.828 169.567 236.982C169.931 237.136 170.239 237.36 170.505 237.654C170.757 237.962 170.897 238.354 170.911 238.844C170.911 239.292 170.785 239.684 170.547 240.02C170.295 240.37 169.959 240.636 169.511 240.832C169.063 241.028 168.545 241.126 167.957 241.126C167.341 241.126 166.795 241.028 166.319 240.804Z" fill="#595959"/>
<rect x="0.5" y="0.5" width="577" height="258" rx="3.5" stroke="#CED7D4"/>
</svg>
