<svg width="60" height="60" viewBox="0 0 60 60" fill="none" xmlns="http://www.w3.org/2000/svg">
<rect width="60" height="60" rx="12" fill="#F3F3F3"/>
<path d="M38.3802 26.5701L37.1502 28.4201C37.7433 29.6032 38.0338 30.915 37.9954 32.2378C37.957 33.5607 37.591 34.8534 36.9302 36.0001H23.0702C22.2113 34.5102 21.8555 32.7832 22.0553 31.0752C22.2552 29.3671 23.0001 27.7689 24.1797 26.5175C25.3592 25.2662 26.9106 24.4282 28.6039 24.1278C30.2972 23.8275 32.0422 24.0808 33.5802 24.8501L35.4302 23.6201C33.5467 22.4123 31.3125 21.8711 29.0851 22.0831C26.8576 22.295 24.7656 23.2478 23.1437 24.7891C21.5217 26.3304 20.4635 28.3712 20.1384 30.5849C19.8132 32.7987 20.2399 35.0575 21.3502 37.0001C21.5247 37.3024 21.7753 37.5537 22.077 37.7292C22.3787 37.9046 22.7211 37.998 23.0702 38.0001H36.9202C37.2726 38.0015 37.6191 37.9098 37.9247 37.7342C38.2302 37.5586 38.484 37.3053 38.6602 37.0001C39.5816 35.404 40.0439 33.5844 39.9963 31.7421C39.9487 29.8998 39.3928 28.1064 38.3902 26.5601L38.3802 26.5701Z" fill="#506C65"/>
<path d="M28.5905 33.4099C28.7762 33.5959 28.9968 33.7434 29.2396 33.844C29.4824 33.9447 29.7426 33.9965 30.0055 33.9965C30.2683 33.9965 30.5286 33.9447 30.7714 33.844C31.0142 33.7434 31.2347 33.5959 31.4205 33.4099L37.0805 24.9199L28.5905 30.5799C28.4045 30.7657 28.257 30.9862 28.1564 31.229C28.0557 31.4718 28.0039 31.7321 28.0039 31.9949C28.0039 32.2578 28.0557 32.518 28.1564 32.7608C28.257 33.0036 28.4045 33.2242 28.5905 33.4099Z" fill="#121212"/>
</svg>
