<svg width="60" height="60" viewBox="0 0 60 60" fill="none" xmlns="http://www.w3.org/2000/svg">
<rect width="60" height="60" rx="12" fill="#F3F3F3"/>
<path d="M35.9998 41.9998H29.4498C28.3698 41.9998 27.3098 41.5498 26.5598 40.7698L19.2598 33.1598L21.3298 31.3298C21.9498 30.7798 22.8598 30.6698 23.5898 31.0598L25.9998 32.3398V22.7898C25.9998 21.4098 27.1198 20.2898 28.4998 20.2898C28.6698 20.2898 28.8398 20.3098 29.0098 20.3398C29.0998 19.0398 30.1798 18.0098 31.4998 18.0098C32.3598 18.0098 33.1098 18.4398 33.5598 19.0998C33.8498 18.9798 34.1698 18.9198 34.4998 18.9198C35.8798 18.9198 36.9998 20.0398 36.9998 21.4198V21.6998C37.1598 21.6698 37.3298 21.6498 37.4998 21.6498C38.8798 21.6498 39.9998 22.7698 39.9998 24.1498V37.9998C39.9998 40.2098 38.2098 41.9998 35.9998 41.9998ZM22.1398 33.2798L27.9998 39.3798C28.3798 39.7698 28.8998 39.9998 29.4398 39.9998H35.9998C37.0998 39.9998 37.9998 39.0998 37.9998 37.9998V24.1498C37.9998 23.8698 37.7798 23.6498 37.4998 23.6498C37.2198 23.6498 36.9998 23.8698 36.9998 24.1498V29.9998H34.9998V21.4198C34.9998 21.1398 34.7798 20.9198 34.4998 20.9198C34.2198 20.9198 33.9998 21.1398 33.9998 21.4198V29.9998H31.9998V20.5098C31.9998 20.2298 31.7798 20.0098 31.4998 20.0098C31.2198 20.0098 30.9998 20.2298 30.9998 20.5098V29.9998H28.9998V22.7898C28.9998 22.5098 28.7798 22.2898 28.4998 22.2898C28.2198 22.2898 27.9998 22.5198 27.9998 22.7898V35.6598L22.6498 32.8298L22.1398 33.2798Z" fill="#506C65"/>
</svg>
