<svg width="233" height="68" viewBox="0 0 233 68" fill="none" xmlns="http://www.w3.org/2000/svg">
<rect x="173" y="5" width="60" height="60" rx="12" fill="#F3F3F3"/>
<path d="M203 25C197.48 25 193 29.48 193 35C193 40.52 197.48 45 203 45C208.52 45 213 40.52 213 35C213 29.48 208.52 25 203 25ZM203 43C198.59 43 195 39.41 195 35C195 30.59 198.59 27 203 27C207.41 27 211 30.59 211 35C211 39.41 207.41 43 203 43ZM207.59 30.58L201 37.17L198.41 34.59L197 36L201 40L209 32L207.59 30.58Z" fill="#506C65"/>
<path d="M1.152 24.8V20.672H8.864V44H4.256V24.8H1.152ZM12.7898 32.032C12.7898 28.3413 13.4511 25.4507 14.7738 23.36C16.1178 21.2693 18.3364 20.224 21.4298 20.224C24.5231 20.224 26.7311 21.2693 28.0538 23.36C29.3978 25.4507 30.0698 28.3413 30.0698 32.032C30.0698 35.744 29.3978 38.656 28.0538 40.768C26.7311 42.88 24.5231 43.936 21.4298 43.936C18.3364 43.936 16.1178 42.88 14.7738 40.768C13.4511 38.656 12.7898 35.744 12.7898 32.032ZM25.6538 32.032C25.6538 30.4533 25.5471 29.1307 25.3338 28.064C25.1418 26.976 24.7364 26.0907 24.1178 25.408C23.5204 24.7253 22.6244 24.384 21.4298 24.384C20.2351 24.384 19.3284 24.7253 18.7098 25.408C18.1124 26.0907 17.7071 26.976 17.4938 28.064C17.3018 29.1307 17.2058 30.4533 17.2058 32.032C17.2058 33.6533 17.3018 35.0187 17.4938 36.128C17.6858 37.216 18.0911 38.1013 18.7098 38.784C19.3284 39.4453 20.2351 39.776 21.4298 39.776C22.6244 39.776 23.5311 39.4453 24.1498 38.784C24.7684 38.1013 25.1738 37.216 25.3658 36.128C25.5578 35.0187 25.6538 33.6533 25.6538 32.032Z" fill="#121212"/>
</svg>
