<svg width="233" height="68" viewBox="0 0 233 68" fill="none" xmlns="http://www.w3.org/2000/svg">
<rect x="173" y="5" width="60" height="60" rx="12" fill="#F3F3F3"/>
<path d="M203 25C197.48 25 193 29.48 193 35C193 40.52 197.48 45 203 45C208.52 45 213 40.52 213 35C213 29.48 208.52 25 203 25ZM195 35C195 30.58 198.58 27 203 27C204.85 27 206.55 27.63 207.9 28.69L196.69 39.9C195.63 38.55 195 36.85 195 35ZM203 43C201.15 43 199.45 42.37 198.1 41.31L209.31 30.1C210.37 31.45 211 33.15 211 35C211 39.42 207.42 43 203 43Z" fill="#506C65"/>
<path d="M1.696 32.032C1.696 28.3413 2.35733 25.4507 3.68 23.36C5.024 21.2693 7.24267 20.224 10.336 20.224C13.4293 20.224 15.6373 21.2693 16.96 23.36C18.304 25.4507 18.976 28.3413 18.976 32.032C18.976 35.744 18.304 38.656 16.96 40.768C15.6373 42.88 13.4293 43.936 10.336 43.936C7.24267 43.936 5.024 42.88 3.68 40.768C2.35733 38.656 1.696 35.744 1.696 32.032ZM14.56 32.032C14.56 30.4533 14.4533 29.1307 14.24 28.064C14.048 26.976 13.6427 26.0907 13.024 25.408C12.4267 24.7253 11.5307 24.384 10.336 24.384C9.14133 24.384 8.23467 24.7253 7.616 25.408C7.01867 26.0907 6.61333 26.976 6.4 28.064C6.208 29.1307 6.112 30.4533 6.112 32.032C6.112 33.6533 6.208 35.0187 6.4 36.128C6.592 37.216 6.99733 38.1013 7.616 38.784C8.23467 39.4453 9.14133 39.776 10.336 39.776C11.5307 39.776 12.4373 39.4453 13.056 38.784C13.6747 38.1013 14.08 37.216 14.272 36.128C14.464 35.0187 14.56 33.6533 14.56 32.032ZM21.6915 39.456V35.936L32.1555 20.96H37.3715V35.552H40.1875V39.456H37.3715V44H32.8915V39.456H21.6915ZM33.1795 25.76L26.6195 35.552H33.1795V25.76Z" fill="#121212"/>
</svg>
