<svg width="28" height="28" viewBox="0 0 28 28" fill="none" xmlns="http://www.w3.org/2000/svg">
<path d="M5.78637 7.51655C4.84819 7.1613 4.37909 6.12517 4.70159 5.17785C5.05341 4.23053 6.07956 3.75687 7.01775 4.08251C5.05342 3.37202 2.88386 4.37855 2.18022 6.362C1.47657 8.34545 2.47339 10.5361 4.43772 11.2466L22.9669 18.0555L7.01775 23.917C5.05342 24.6275 2.88386 23.621 2.18022 21.6375C1.47657 19.6541 2.47339 17.4634 4.43772 16.7529C1.44724 17.8483 -0.0773009 21.1639 1.00748 24.1835C2.09226 27.203 5.37591 28.7424 8.36639 27.6471L25.7815 21.2527C27.5406 20.6014 28.4202 18.6476 27.8045 16.9009C27.4527 15.924 26.6904 15.2135 25.7815 14.8583L5.78637 7.51655Z" fill="#0C6B58"/>
<path d="M22.9669 9.94429L7.01775 4.08275C5.05342 3.37226 2.88386 4.37878 2.18022 6.36224C1.47657 8.34569 2.47339 10.5364 4.43772 11.2469C1.44724 10.1515 -0.0773009 6.8359 1.00748 3.81631C2.09226 0.796732 5.37591 -0.742664 8.36639 0.352674L25.7815 6.74708C27.5406 7.39836 28.4202 9.35221 27.8045 11.0988C27.4527 12.0758 26.6904 12.7862 25.7815 13.1415L5.78637 20.4832C4.84819 20.8385 4.37909 21.8746 4.70159 22.8219C5.02409 23.7692 6.07956 24.2429 7.01775 23.9173C5.05342 24.6277 2.88386 23.6212 2.18022 21.6378C1.47657 19.6543 2.47339 17.4636 4.43772 16.7531L22.9669 9.94429Z" fill="#3EBD93"/>
</svg>
