<svg width="578" height="259" viewBox="0 0 578 259" fill="none" xmlns="http://www.w3.org/2000/svg">
<rect x="0.5" y="0.5" width="577" height="258" rx="3.5" fill="white"/>
<path d="M13.5 47.5H539C545.351 47.5 550.5 52.6487 550.5 59V60C550.5 66.3513 545.351 71.5 539 71.5H13.5V47.5Z" stroke="#CED7D4"/>
<path d="M14 48H332.5C338.851 48 344 53.1487 344 59.5V59.5C344 65.8513 338.851 71 332.5 71H14V48Z" fill="#4CA2A8"/>
<path d="M13.5 127.5H539C545.351 127.5 550.5 132.649 550.5 139V140C550.5 146.351 545.351 151.5 539 151.5H13.5V127.5Z" stroke="#CED7D4"/>
<path d="M14 128H131.5C137.851 128 143 133.149 143 139.5V139.5C143 145.851 137.851 151 131.5 151H14V128Z" fill="#4CA2A8"/>
<path d="M13.5 207.5H539C545.351 207.5 550.5 212.649 550.5 219V220C550.5 226.351 545.351 231.5 539 231.5H13.5V207.5Z" stroke="#CED7D4"/>
<path d="M14 208H466.5C472.851 208 478 213.149 478 219.5V219.5C478 225.851 472.851 231 466.5 231H14V208Z" fill="#DD887C"/>
<path d="M289.018 30.824C287.952 30.2693 287.418 29.4107 287.418 28.248C287.418 27.672 287.562 27.1493 287.85 26.68C288.149 26.2 288.592 25.8213 289.178 25.544C289.776 25.256 290.501 25.112 291.354 25.112C292.208 25.112 292.928 25.256 293.514 25.544C294.112 25.8213 294.554 26.2 294.842 26.68C295.141 27.1493 295.29 27.672 295.29 28.248C295.29 28.8347 295.146 29.352 294.858 29.8C294.57 30.2373 294.186 30.5787 293.706 30.824C294.293 31.08 294.752 31.4533 295.082 31.944C295.413 32.4347 295.578 33.016 295.578 33.688C295.578 34.4133 295.392 35.048 295.018 35.592C294.656 36.1253 294.154 36.536 293.514 36.824C292.874 37.112 292.154 37.256 291.354 37.256C290.554 37.256 289.834 37.112 289.194 36.824C288.565 36.536 288.064 36.1253 287.69 35.592C287.328 35.048 287.146 34.4133 287.146 33.688C287.146 33.016 287.312 32.4347 287.642 31.944C287.973 31.4427 288.432 31.0693 289.018 30.824ZM293.114 28.568C293.114 28.0453 292.954 27.64 292.634 27.352C292.325 27.064 291.898 26.92 291.354 26.92C290.821 26.92 290.394 27.064 290.074 27.352C289.765 27.64 289.61 28.0507 289.61 28.584C289.61 29.064 289.77 29.448 290.09 29.736C290.421 30.024 290.842 30.168 291.354 30.168C291.866 30.168 292.288 30.024 292.618 29.736C292.949 29.4373 293.114 29.048 293.114 28.568ZM291.354 31.8C290.746 31.8 290.25 31.9547 289.866 32.264C289.493 32.5733 289.306 33.016 289.306 33.592C289.306 34.1253 289.488 34.5627 289.85 34.904C290.224 35.2347 290.725 35.4 291.354 35.4C291.984 35.4 292.48 35.2293 292.842 34.888C293.205 34.5467 293.386 34.1147 293.386 33.592C293.386 33.0267 293.2 32.5893 292.826 32.28C292.453 31.96 291.962 31.8 291.354 31.8ZM298.052 34.472C299.076 33.6187 299.892 32.9093 300.5 32.344C301.108 31.768 301.614 31.1707 302.02 30.552C302.425 29.9333 302.628 29.3253 302.628 28.728C302.628 28.184 302.5 27.7573 302.244 27.448C301.988 27.1387 301.593 26.984 301.06 26.984C300.526 26.984 300.116 27.1653 299.828 27.528C299.54 27.88 299.39 28.3653 299.38 28.984H297.204C297.246 27.704 297.625 26.7333 298.34 26.072C299.065 25.4107 299.982 25.08 301.092 25.08C302.308 25.08 303.241 25.4053 303.892 26.056C304.542 26.696 304.868 27.544 304.868 28.6C304.868 29.432 304.644 30.2267 304.196 30.984C303.748 31.7413 303.236 32.4027 302.66 32.968C302.084 33.5227 301.332 34.1947 300.404 34.984H305.124V36.84H297.22V35.176L298.052 34.472ZM309.239 34.648L307.367 39.144H305.927L306.967 34.648H309.239ZM316.646 28.248C316.539 27.8 316.352 27.464 316.086 27.24C315.83 27.016 315.456 26.904 314.966 26.904C314.23 26.904 313.686 27.2027 313.334 27.8C312.992 28.3867 312.816 29.3467 312.806 30.68C313.062 30.2533 313.435 29.9227 313.926 29.688C314.416 29.4427 314.95 29.32 315.526 29.32C316.219 29.32 316.832 29.4693 317.366 29.768C317.899 30.0667 318.315 30.504 318.614 31.08C318.912 31.6453 319.062 32.328 319.062 33.128C319.062 33.8853 318.907 34.5627 318.598 35.16C318.299 35.7467 317.856 36.2053 317.27 36.536C316.683 36.8667 315.984 37.032 315.174 37.032C314.064 37.032 313.19 36.7867 312.55 36.296C311.92 35.8053 311.478 35.1227 311.222 34.248C310.976 33.3627 310.854 32.2747 310.854 30.984C310.854 29.032 311.19 27.56 311.862 26.568C312.534 25.5653 313.595 25.064 315.046 25.064C316.166 25.064 317.035 25.368 317.654 25.976C318.272 26.584 318.63 27.3413 318.726 28.248H316.646ZM315.014 31.16C314.448 31.16 313.974 31.3253 313.59 31.656C313.206 31.9867 313.014 32.4667 313.014 33.096C313.014 33.7253 313.19 34.2213 313.542 34.584C313.904 34.9467 314.411 35.128 315.062 35.128C315.638 35.128 316.091 34.952 316.422 34.6C316.763 34.248 316.934 33.7733 316.934 33.176C316.934 32.5573 316.768 32.0667 316.438 31.704C316.118 31.3413 315.643 31.16 315.014 31.16ZM320.576 28.2C320.576 27.3893 320.811 26.7547 321.28 26.296C321.76 25.8373 322.373 25.608 323.12 25.608C323.867 25.608 324.475 25.8373 324.944 26.296C325.424 26.7547 325.664 27.3893 325.664 28.2C325.664 29.0213 325.424 29.6613 324.944 30.12C324.475 30.5787 323.867 30.808 323.12 30.808C322.373 30.808 321.76 30.5787 321.28 30.12C320.811 29.6613 320.576 29.0213 320.576 28.2ZM330.848 25.8L324.56 37H322.384L328.656 25.8H330.848ZM323.104 26.952C322.517 26.952 322.224 27.368 322.224 28.2C322.224 29.0427 322.517 29.464 323.104 29.464C323.392 29.464 323.616 29.3627 323.776 29.16C323.936 28.9467 324.016 28.6267 324.016 28.2C324.016 27.368 323.712 26.952 323.104 26.952ZM327.6 34.584C327.6 33.7627 327.835 33.128 328.304 32.68C328.784 32.2213 329.397 31.992 330.144 31.992C330.891 31.992 331.493 32.2213 331.952 32.68C332.421 33.128 332.656 33.7627 332.656 34.584C332.656 35.4053 332.421 36.0453 331.952 36.504C331.493 36.9627 330.891 37.192 330.144 37.192C329.387 37.192 328.773 36.9627 328.304 36.504C327.835 36.0453 327.6 35.4053 327.6 34.584ZM330.128 33.336C329.52 33.336 329.216 33.752 329.216 34.584C329.216 35.4267 329.52 35.848 330.128 35.848C330.725 35.848 331.024 35.4267 331.024 34.584C331.024 33.752 330.725 33.336 330.128 33.336Z" fill="#595959"/>
<path d="M14.3604 37V27.0059H15.6182V35.8789H19.9863V37H14.3604ZM27.3965 31.9893C27.3965 32.7959 27.3372 33.5182 27.2188 34.1562C27.1048 34.7943 26.918 35.3343 26.6582 35.7764C26.403 36.2184 26.0726 36.5557 25.667 36.7881C25.2614 37.0205 24.7692 37.1367 24.1904 37.1367C23.6527 37.1367 23.1833 37.0205 22.7822 36.7881C22.3857 36.5557 22.0553 36.2184 21.791 35.7764C21.5312 35.3343 21.3353 34.7943 21.2031 34.1562C21.0755 33.5182 21.0117 32.7959 21.0117 31.9893C21.0117 31.1826 21.0687 30.4603 21.1826 29.8223C21.3011 29.1842 21.4857 28.6465 21.7363 28.209C21.9915 27.7669 22.3197 27.4297 22.7207 27.1973C23.1263 26.9648 23.6162 26.8486 24.1904 26.8486C24.7327 26.8486 25.2044 26.9648 25.6055 27.1973C26.0065 27.4251 26.3392 27.7601 26.6035 28.2021C26.8678 28.6396 27.0661 29.1774 27.1982 29.8154C27.3304 30.4535 27.3965 31.1781 27.3965 31.9893ZM22.2764 31.9893C22.2764 32.6729 22.3105 33.2699 22.3789 33.7803C22.4473 34.2907 22.5566 34.7168 22.707 35.0586C22.8574 35.3958 23.0534 35.651 23.2949 35.8242C23.541 35.9928 23.8395 36.0771 24.1904 36.0771C24.5413 36.0771 24.8398 35.9928 25.0859 35.8242C25.332 35.6556 25.5326 35.4027 25.6875 35.0654C25.847 34.7282 25.9609 34.3044 26.0293 33.7939C26.1022 33.279 26.1387 32.6774 26.1387 31.9893C26.1387 31.3057 26.1022 30.7087 26.0293 30.1982C25.9609 29.6878 25.847 29.264 25.6875 28.9268C25.5326 28.5895 25.332 28.3366 25.0859 28.168C24.8398 27.9993 24.5413 27.915 24.1904 27.915C23.8395 27.915 23.541 27.9993 23.2949 28.168C23.0534 28.3366 22.8574 28.5895 22.707 28.9268C22.5566 29.264 22.4473 29.6878 22.3789 30.1982C22.3105 30.7087 22.2764 31.3057 22.2764 31.9893ZM31.7783 30.8682C32.2295 30.8682 32.6488 30.932 33.0361 31.0596C33.4281 31.1826 33.7676 31.3672 34.0547 31.6133C34.3464 31.8594 34.5742 32.1647 34.7383 32.5293C34.9023 32.8939 34.9844 33.3154 34.9844 33.7939C34.9844 34.3135 34.9069 34.7806 34.752 35.1953C34.597 35.61 34.3669 35.9609 34.0615 36.248C33.7562 36.5352 33.3779 36.7562 32.9268 36.9111C32.4801 37.0615 31.9652 37.1367 31.3818 37.1367C31.1494 37.1367 30.9193 37.1253 30.6914 37.1025C30.4681 37.0798 30.2516 37.0456 30.042 37C29.8369 36.959 29.641 36.9043 29.4541 36.8359C29.2673 36.7676 29.0986 36.6878 28.9482 36.5967V35.4209C29.0986 35.5257 29.2741 35.6191 29.4746 35.7012C29.6797 35.7832 29.8939 35.8516 30.1172 35.9062C30.3405 35.9609 30.5638 36.0042 30.7871 36.0361C31.015 36.0635 31.2246 36.0771 31.416 36.0771C31.776 36.0771 32.0973 36.0361 32.3799 35.9541C32.6624 35.8675 32.9017 35.7354 33.0977 35.5576C33.2936 35.3799 33.444 35.1566 33.5488 34.8877C33.6536 34.6188 33.7061 34.2998 33.7061 33.9307C33.7061 33.279 33.5055 32.7822 33.1045 32.4404C32.7035 32.0941 32.1201 31.9209 31.3545 31.9209C31.2314 31.9209 31.097 31.9277 30.9512 31.9414C30.8099 31.9505 30.6663 31.9642 30.5205 31.9824C30.3792 32.0007 30.2425 32.0212 30.1104 32.0439C29.9827 32.0622 29.8711 32.0804 29.7754 32.0986L29.1602 31.709L29.5361 27.0059H34.2529V28.1406H30.6162L30.3496 31.0049C30.4954 30.9775 30.6868 30.9479 30.9238 30.916C31.1654 30.8841 31.4502 30.8682 31.7783 30.8682ZM37.6846 37L41.5332 28.1406H36.3789V27.0059H42.8047V27.9971L39.0107 37H37.6846ZM50.9053 34.7578H49.4492V37H48.2461V34.7578H43.6318V33.6709L48.1641 26.9512H49.4492V33.623H50.9053V34.7578ZM48.2461 33.623V31.1895C48.2461 30.9342 48.2484 30.6676 48.2529 30.3896C48.262 30.1071 48.2712 29.8337 48.2803 29.5693C48.2894 29.3005 48.2985 29.0498 48.3076 28.8174C48.3213 28.585 48.3304 28.3913 48.335 28.2363H48.2734C48.2415 28.3275 48.2005 28.43 48.1504 28.5439C48.1048 28.6533 48.0524 28.765 47.9932 28.8789C47.9385 28.9883 47.8815 29.0954 47.8223 29.2002C47.763 29.305 47.7083 29.3939 47.6582 29.4668L44.8486 33.623H48.2461ZM14.3604 117V107.006H15.6182V115.879H19.9863V117H14.3604ZM27.3965 111.989C27.3965 112.796 27.3372 113.518 27.2188 114.156C27.1048 114.794 26.918 115.334 26.6582 115.776C26.403 116.218 26.0726 116.556 25.667 116.788C25.2614 117.021 24.7692 117.137 24.1904 117.137C23.6527 117.137 23.1833 117.021 22.7822 116.788C22.3857 116.556 22.0553 116.218 21.791 115.776C21.5312 115.334 21.3353 114.794 21.2031 114.156C21.0755 113.518 21.0117 112.796 21.0117 111.989C21.0117 111.183 21.0687 110.46 21.1826 109.822C21.3011 109.184 21.4857 108.646 21.7363 108.209C21.9915 107.767 22.3197 107.43 22.7207 107.197C23.1263 106.965 23.6162 106.849 24.1904 106.849C24.7327 106.849 25.2044 106.965 25.6055 107.197C26.0065 107.425 26.3392 107.76 26.6035 108.202C26.8678 108.64 27.0661 109.177 27.1982 109.815C27.3304 110.453 27.3965 111.178 27.3965 111.989ZM22.2764 111.989C22.2764 112.673 22.3105 113.27 22.3789 113.78C22.4473 114.291 22.5566 114.717 22.707 115.059C22.8574 115.396 23.0534 115.651 23.2949 115.824C23.541 115.993 23.8395 116.077 24.1904 116.077C24.5413 116.077 24.8398 115.993 25.0859 115.824C25.332 115.656 25.5326 115.403 25.6875 115.065C25.847 114.728 25.9609 114.304 26.0293 113.794C26.1022 113.279 26.1387 112.677 26.1387 111.989C26.1387 111.306 26.1022 110.709 26.0293 110.198C25.9609 109.688 25.847 109.264 25.6875 108.927C25.5326 108.59 25.332 108.337 25.0859 108.168C24.8398 107.999 24.5413 107.915 24.1904 107.915C23.8395 107.915 23.541 107.999 23.2949 108.168C23.0534 108.337 22.8574 108.59 22.707 108.927C22.5566 109.264 22.4473 109.688 22.3789 110.198C22.3105 110.709 22.2764 111.306 22.2764 111.989ZM31.7783 110.868C32.2295 110.868 32.6488 110.932 33.0361 111.06C33.4281 111.183 33.7676 111.367 34.0547 111.613C34.3464 111.859 34.5742 112.165 34.7383 112.529C34.9023 112.894 34.9844 113.315 34.9844 113.794C34.9844 114.313 34.9069 114.781 34.752 115.195C34.597 115.61 34.3669 115.961 34.0615 116.248C33.7562 116.535 33.3779 116.756 32.9268 116.911C32.4801 117.062 31.9652 117.137 31.3818 117.137C31.1494 117.137 30.9193 117.125 30.6914 117.103C30.4681 117.08 30.2516 117.046 30.042 117C29.8369 116.959 29.641 116.904 29.4541 116.836C29.2673 116.768 29.0986 116.688 28.9482 116.597V115.421C29.0986 115.526 29.2741 115.619 29.4746 115.701C29.6797 115.783 29.8939 115.852 30.1172 115.906C30.3405 115.961 30.5638 116.004 30.7871 116.036C31.015 116.063 31.2246 116.077 31.416 116.077C31.776 116.077 32.0973 116.036 32.3799 115.954C32.6624 115.868 32.9017 115.735 33.0977 115.558C33.2936 115.38 33.444 115.157 33.5488 114.888C33.6536 114.619 33.7061 114.3 33.7061 113.931C33.7061 113.279 33.5055 112.782 33.1045 112.44C32.7035 112.094 32.1201 111.921 31.3545 111.921C31.2314 111.921 31.097 111.928 30.9512 111.941C30.8099 111.951 30.6663 111.964 30.5205 111.982C30.3792 112.001 30.2425 112.021 30.1104 112.044C29.9827 112.062 29.8711 112.08 29.7754 112.099L29.1602 111.709L29.5361 107.006H34.2529V108.141H30.6162L30.3496 111.005C30.4954 110.978 30.6868 110.948 30.9238 110.916C31.1654 110.884 31.4502 110.868 31.7783 110.868ZM37.6846 117L41.5332 108.141H36.3789V107.006H42.8047V107.997L39.0107 117H37.6846ZM47.2002 110.868C47.6514 110.868 48.0706 110.932 48.458 111.06C48.8499 111.183 49.1895 111.367 49.4766 111.613C49.7682 111.859 49.9961 112.165 50.1602 112.529C50.3242 112.894 50.4062 113.315 50.4062 113.794C50.4062 114.313 50.3288 114.781 50.1738 115.195C50.0189 115.61 49.7887 115.961 49.4834 116.248C49.1781 116.535 48.7998 116.756 48.3486 116.911C47.902 117.062 47.387 117.137 46.8037 117.137C46.5713 117.137 46.3411 117.125 46.1133 117.103C45.89 117.08 45.6735 117.046 45.4639 117C45.2588 116.959 45.0628 116.904 44.876 116.836C44.6891 116.768 44.5205 116.688 44.3701 116.597V115.421C44.5205 115.526 44.696 115.619 44.8965 115.701C45.1016 115.783 45.3158 115.852 45.5391 115.906C45.7624 115.961 45.9857 116.004 46.209 116.036C46.4368 116.063 46.6465 116.077 46.8379 116.077C47.1979 116.077 47.5192 116.036 47.8018 115.954C48.0843 115.868 48.3236 115.735 48.5195 115.558C48.7155 115.38 48.8659 115.157 48.9707 114.888C49.0755 114.619 49.1279 114.3 49.1279 113.931C49.1279 113.279 48.9274 112.782 48.5264 112.44C48.1253 112.094 47.542 111.921 46.7764 111.921C46.6533 111.921 46.5189 111.928 46.373 111.941C46.2318 111.951 46.0882 111.964 45.9424 111.982C45.8011 112.001 45.6644 112.021 45.5322 112.044C45.4046 112.062 45.293 112.08 45.1973 112.099L44.582 111.709L44.958 107.006H49.6748V108.141H46.0381L45.7715 111.005C45.9173 110.978 46.1087 110.948 46.3457 110.916C46.5872 110.884 46.8721 110.868 47.2002 110.868ZM14.3604 197V187.006H15.6182V195.879H19.9863V197H14.3604ZM27.3965 191.989C27.3965 192.796 27.3372 193.518 27.2188 194.156C27.1048 194.794 26.918 195.334 26.6582 195.776C26.403 196.218 26.0726 196.556 25.667 196.788C25.2614 197.021 24.7692 197.137 24.1904 197.137C23.6527 197.137 23.1833 197.021 22.7822 196.788C22.3857 196.556 22.0553 196.218 21.791 195.776C21.5312 195.334 21.3353 194.794 21.2031 194.156C21.0755 193.518 21.0117 192.796 21.0117 191.989C21.0117 191.183 21.0687 190.46 21.1826 189.822C21.3011 189.184 21.4857 188.646 21.7363 188.209C21.9915 187.767 22.3197 187.43 22.7207 187.197C23.1263 186.965 23.6162 186.849 24.1904 186.849C24.7327 186.849 25.2044 186.965 25.6055 187.197C26.0065 187.425 26.3392 187.76 26.6035 188.202C26.8678 188.64 27.0661 189.177 27.1982 189.815C27.3304 190.453 27.3965 191.178 27.3965 191.989ZM22.2764 191.989C22.2764 192.673 22.3105 193.27 22.3789 193.78C22.4473 194.291 22.5566 194.717 22.707 195.059C22.8574 195.396 23.0534 195.651 23.2949 195.824C23.541 195.993 23.8395 196.077 24.1904 196.077C24.5413 196.077 24.8398 195.993 25.0859 195.824C25.332 195.656 25.5326 195.403 25.6875 195.065C25.847 194.728 25.9609 194.304 26.0293 193.794C26.1022 193.279 26.1387 192.677 26.1387 191.989C26.1387 191.306 26.1022 190.709 26.0293 190.198C25.9609 189.688 25.847 189.264 25.6875 188.927C25.5326 188.59 25.332 188.337 25.0859 188.168C24.8398 187.999 24.5413 187.915 24.1904 187.915C23.8395 187.915 23.541 187.999 23.2949 188.168C23.0534 188.337 22.8574 188.59 22.707 188.927C22.5566 189.264 22.4473 189.688 22.3789 190.198C22.3105 190.709 22.2764 191.306 22.2764 191.989ZM31.7783 190.868C32.2295 190.868 32.6488 190.932 33.0361 191.06C33.4281 191.183 33.7676 191.367 34.0547 191.613C34.3464 191.859 34.5742 192.165 34.7383 192.529C34.9023 192.894 34.9844 193.315 34.9844 193.794C34.9844 194.313 34.9069 194.781 34.752 195.195C34.597 195.61 34.3669 195.961 34.0615 196.248C33.7562 196.535 33.3779 196.756 32.9268 196.911C32.4801 197.062 31.9652 197.137 31.3818 197.137C31.1494 197.137 30.9193 197.125 30.6914 197.103C30.4681 197.08 30.2516 197.046 30.042 197C29.8369 196.959 29.641 196.904 29.4541 196.836C29.2673 196.768 29.0986 196.688 28.9482 196.597V195.421C29.0986 195.526 29.2741 195.619 29.4746 195.701C29.6797 195.783 29.8939 195.852 30.1172 195.906C30.3405 195.961 30.5638 196.004 30.7871 196.036C31.015 196.063 31.2246 196.077 31.416 196.077C31.776 196.077 32.0973 196.036 32.3799 195.954C32.6624 195.868 32.9017 195.735 33.0977 195.558C33.2936 195.38 33.444 195.157 33.5488 194.888C33.6536 194.619 33.7061 194.3 33.7061 193.931C33.7061 193.279 33.5055 192.782 33.1045 192.44C32.7035 192.094 32.1201 191.921 31.3545 191.921C31.2314 191.921 31.097 191.928 30.9512 191.941C30.8099 191.951 30.6663 191.964 30.5205 191.982C30.3792 192.001 30.2425 192.021 30.1104 192.044C29.9827 192.062 29.8711 192.08 29.7754 192.099L29.1602 191.709L29.5361 187.006H34.2529V188.141H30.6162L30.3496 191.005C30.4954 190.978 30.6868 190.948 30.9238 190.916C31.1654 190.884 31.4502 190.868 31.7783 190.868ZM37.6846 197L41.5332 188.141H36.3789V187.006H42.8047V187.997L39.0107 197H37.6846ZM44.2471 192.728C44.2471 192.249 44.2699 191.773 44.3154 191.299C44.3656 190.825 44.4499 190.371 44.5684 189.938C44.6914 189.501 44.8577 189.095 45.0674 188.722C45.277 188.348 45.5436 188.024 45.8672 187.751C46.1908 187.473 46.5781 187.257 47.0293 187.102C47.4805 186.942 48.0091 186.862 48.6152 186.862C48.7018 186.862 48.7975 186.865 48.9023 186.869C49.0072 186.874 49.112 186.883 49.2168 186.896C49.3262 186.906 49.4287 186.919 49.5244 186.938C49.6247 186.951 49.7135 186.969 49.791 186.992V188.052C49.6315 187.997 49.4515 187.956 49.251 187.929C49.0505 187.901 48.8522 187.888 48.6562 187.888C48.2461 187.888 47.8838 187.938 47.5693 188.038C47.2594 188.134 46.9906 188.271 46.7627 188.448C46.5348 188.626 46.3434 188.838 46.1885 189.084C46.0381 189.33 45.915 189.604 45.8193 189.904C45.7236 190.201 45.653 190.517 45.6074 190.854C45.5618 191.192 45.5322 191.543 45.5186 191.907H45.6006C45.6917 191.743 45.8011 191.59 45.9287 191.449C46.0609 191.303 46.2135 191.18 46.3867 191.08C46.5599 190.975 46.7536 190.893 46.9678 190.834C47.1865 190.775 47.4303 190.745 47.6992 190.745C48.1322 190.745 48.5241 190.813 48.875 190.95C49.2259 191.082 49.5244 191.278 49.7705 191.538C50.0166 191.798 50.2057 192.117 50.3379 192.495C50.4746 192.869 50.543 193.297 50.543 193.78C50.543 194.3 50.4723 194.767 50.3311 195.182C50.1898 195.596 49.987 195.95 49.7227 196.241C49.4583 196.528 49.1393 196.749 48.7656 196.904C48.3919 197.059 47.9727 197.137 47.5078 197.137C47.0521 197.137 46.6237 197.048 46.2227 196.87C45.8262 196.692 45.4821 196.421 45.1904 196.057C44.8988 195.692 44.6686 195.234 44.5 194.683C44.3314 194.131 44.2471 193.479 44.2471 192.728ZM47.4941 196.091C47.7676 196.091 48.016 196.045 48.2393 195.954C48.4671 195.858 48.6631 195.717 48.8271 195.53C48.9912 195.339 49.1165 195.1 49.2031 194.812C49.2943 194.521 49.3398 194.177 49.3398 193.78C49.3398 193.461 49.3011 193.176 49.2236 192.926C49.1507 192.671 49.0391 192.454 48.8887 192.276C48.7383 192.099 48.5492 191.962 48.3213 191.866C48.098 191.771 47.8359 191.723 47.5352 191.723C47.2298 191.723 46.9495 191.777 46.6943 191.887C46.4437 191.992 46.2295 192.131 46.0518 192.304C45.874 192.472 45.735 192.666 45.6348 192.885C45.5391 193.104 45.4912 193.322 45.4912 193.541C45.4912 193.846 45.5322 194.152 45.6143 194.457C45.7008 194.758 45.8262 195.029 45.9902 195.271C46.1589 195.512 46.3685 195.71 46.6191 195.865C46.8698 196.016 47.1615 196.091 47.4941 196.091Z" fill="#595959"/>
<path d="M98.8483 108.408C98.9016 107.341 99.275 106.52 99.9683 105.944C100.672 105.357 101.595 105.064 102.736 105.064C103.515 105.064 104.182 105.203 104.736 105.48C105.291 105.747 105.707 106.115 105.984 106.584C106.272 107.043 106.416 107.565 106.416 108.152C106.416 108.824 106.24 109.395 105.888 109.864C105.547 110.323 105.136 110.632 104.656 110.792V110.856C105.275 111.048 105.755 111.389 106.096 111.88C106.448 112.371 106.624 113 106.624 113.768C106.624 114.408 106.475 114.979 106.176 115.48C105.888 115.981 105.456 116.376 104.88 116.664C104.315 116.941 103.632 117.08 102.832 117.08C101.627 117.08 100.646 116.776 99.8883 116.168C99.131 115.56 98.731 114.664 98.6883 113.48H100.864C100.886 114.003 101.062 114.424 101.392 114.744C101.734 115.053 102.198 115.208 102.784 115.208C103.328 115.208 103.744 115.059 104.032 114.76C104.331 114.451 104.48 114.056 104.48 113.576C104.48 112.936 104.278 112.477 103.872 112.2C103.467 111.923 102.838 111.784 101.984 111.784H101.52V109.944H101.984C103.499 109.944 104.256 109.437 104.256 108.424C104.256 107.965 104.118 107.608 103.84 107.352C103.574 107.096 103.184 106.968 102.672 106.968C102.171 106.968 101.782 107.107 101.504 107.384C101.238 107.651 101.083 107.992 101.04 108.408H98.8483ZM109.098 114.472C110.122 113.619 110.938 112.909 111.546 112.344C112.154 111.768 112.661 111.171 113.066 110.552C113.472 109.933 113.674 109.325 113.674 108.728C113.674 108.184 113.546 107.757 113.29 107.448C113.034 107.139 112.64 106.984 112.106 106.984C111.573 106.984 111.162 107.165 110.874 107.528C110.586 107.88 110.437 108.365 110.426 108.984H108.25C108.293 107.704 108.672 106.733 109.386 106.072C110.112 105.411 111.029 105.08 112.138 105.08C113.354 105.08 114.288 105.405 114.938 106.056C115.589 106.696 115.914 107.544 115.914 108.6C115.914 109.432 115.69 110.227 115.242 110.984C114.794 111.741 114.282 112.403 113.706 112.968C113.13 113.523 112.378 114.195 111.45 114.984H116.17V116.84H108.266V115.176L109.098 114.472ZM120.286 114.648L118.414 119.144H116.974L118.014 114.648H120.286ZM122.348 114.472C123.372 113.619 124.188 112.909 124.796 112.344C125.404 111.768 125.911 111.171 126.316 110.552C126.722 109.933 126.924 109.325 126.924 108.728C126.924 108.184 126.796 107.757 126.54 107.448C126.284 107.139 125.89 106.984 125.356 106.984C124.823 106.984 124.412 107.165 124.124 107.528C123.836 107.88 123.687 108.365 123.676 108.984H121.5C121.543 107.704 121.922 106.733 122.636 106.072C123.362 105.411 124.279 105.08 125.388 105.08C126.604 105.08 127.538 105.405 128.188 106.056C128.839 106.696 129.164 107.544 129.164 108.6C129.164 109.432 128.94 110.227 128.492 110.984C128.044 111.741 127.532 112.403 126.956 112.968C126.38 113.523 125.628 114.195 124.7 114.984H129.42V116.84H121.516V115.176L122.348 114.472ZM130.576 108.2C130.576 107.389 130.811 106.755 131.28 106.296C131.76 105.837 132.373 105.608 133.12 105.608C133.867 105.608 134.475 105.837 134.944 106.296C135.424 106.755 135.664 107.389 135.664 108.2C135.664 109.021 135.424 109.661 134.944 110.12C134.475 110.579 133.867 110.808 133.12 110.808C132.373 110.808 131.76 110.579 131.28 110.12C130.811 109.661 130.576 109.021 130.576 108.2ZM140.848 105.8L134.56 117H132.384L138.656 105.8H140.848ZM133.104 106.952C132.517 106.952 132.224 107.368 132.224 108.2C132.224 109.043 132.517 109.464 133.104 109.464C133.392 109.464 133.616 109.363 133.776 109.16C133.936 108.947 134.016 108.627 134.016 108.2C134.016 107.368 133.712 106.952 133.104 106.952ZM137.6 114.584C137.6 113.763 137.835 113.128 138.304 112.68C138.784 112.221 139.397 111.992 140.144 111.992C140.891 111.992 141.493 112.221 141.952 112.68C142.421 113.128 142.656 113.763 142.656 114.584C142.656 115.405 142.421 116.045 141.952 116.504C141.493 116.963 140.891 117.192 140.144 117.192C139.387 117.192 138.773 116.963 138.304 116.504C137.835 116.045 137.6 115.405 137.6 114.584ZM140.128 113.336C139.52 113.336 139.216 113.752 139.216 114.584C139.216 115.427 139.52 115.848 140.128 115.848C140.725 115.848 141.024 115.427 141.024 114.584C141.024 113.752 140.725 113.336 140.128 113.336Z" fill="#595959"/>
<path d="M446.232 187.4V185.336H450.088V197H447.784V187.4H446.232ZM452.301 191.016C452.301 189.171 452.631 187.725 453.293 186.68C453.965 185.635 455.074 185.112 456.621 185.112C458.167 185.112 459.271 185.635 459.933 186.68C460.605 187.725 460.941 189.171 460.941 191.016C460.941 192.872 460.605 194.328 459.933 195.384C459.271 196.44 458.167 196.968 456.621 196.968C455.074 196.968 453.965 196.44 453.293 195.384C452.631 194.328 452.301 192.872 452.301 191.016ZM458.733 191.016C458.733 190.227 458.679 189.565 458.573 189.032C458.477 188.488 458.274 188.045 457.965 187.704C457.666 187.363 457.218 187.192 456.621 187.192C456.023 187.192 455.57 187.363 455.261 187.704C454.962 188.045 454.759 188.488 454.653 189.032C454.557 189.565 454.509 190.227 454.509 191.016C454.509 191.827 454.557 192.509 454.653 193.064C454.749 193.608 454.951 194.051 455.261 194.392C455.57 194.723 456.023 194.888 456.621 194.888C457.218 194.888 457.671 194.723 457.981 194.392C458.29 194.051 458.493 193.608 458.589 193.064C458.685 192.509 458.733 191.827 458.733 191.016ZM463.348 194.472C464.372 193.619 465.188 192.909 465.796 192.344C466.404 191.768 466.911 191.171 467.316 190.552C467.722 189.933 467.924 189.325 467.924 188.728C467.924 188.184 467.796 187.757 467.54 187.448C467.284 187.139 466.89 186.984 466.356 186.984C465.823 186.984 465.412 187.165 465.124 187.528C464.836 187.88 464.687 188.365 464.676 188.984H462.5C462.543 187.704 462.922 186.733 463.636 186.072C464.362 185.411 465.279 185.08 466.388 185.08C467.604 185.08 468.538 185.405 469.188 186.056C469.839 186.696 470.164 187.544 470.164 188.6C470.164 189.432 469.94 190.227 469.492 190.984C469.044 191.741 468.532 192.403 467.956 192.968C467.38 193.523 466.628 194.195 465.7 194.984H470.42V196.84H462.516V195.176L463.348 194.472ZM471.576 188.2C471.576 187.389 471.811 186.755 472.28 186.296C472.76 185.837 473.373 185.608 474.12 185.608C474.867 185.608 475.475 185.837 475.944 186.296C476.424 186.755 476.664 187.389 476.664 188.2C476.664 189.021 476.424 189.661 475.944 190.12C475.475 190.579 474.867 190.808 474.12 190.808C473.373 190.808 472.76 190.579 472.28 190.12C471.811 189.661 471.576 189.021 471.576 188.2ZM481.848 185.8L475.56 197H473.384L479.656 185.8H481.848ZM474.104 186.952C473.517 186.952 473.224 187.368 473.224 188.2C473.224 189.043 473.517 189.464 474.104 189.464C474.392 189.464 474.616 189.363 474.776 189.16C474.936 188.947 475.016 188.627 475.016 188.2C475.016 187.368 474.712 186.952 474.104 186.952ZM478.6 194.584C478.6 193.763 478.835 193.128 479.304 192.68C479.784 192.221 480.397 191.992 481.144 191.992C481.891 191.992 482.493 192.221 482.952 192.68C483.421 193.128 483.656 193.763 483.656 194.584C483.656 195.405 483.421 196.045 482.952 196.504C482.493 196.963 481.891 197.192 481.144 197.192C480.387 197.192 479.773 196.963 479.304 196.504C478.835 196.045 478.6 195.405 478.6 194.584ZM481.128 193.336C480.52 193.336 480.216 193.752 480.216 194.584C480.216 195.427 480.52 195.848 481.128 195.848C481.725 195.848 482.024 195.427 482.024 194.584C482.024 193.752 481.725 193.336 481.128 193.336Z" fill="#595959"/>
<rect x="0.5" y="0.5" width="577" height="258" rx="3.5" stroke="#CED7D4"/>
</svg>
